<svg width="119" height="42" viewBox="0 0 119 42" fill="none" xmlns="http://www.w3.org/2000/svg">
<rect x="0.5" y="0.5" width="118" height="41" rx="17.5" stroke="#E0DFDF"/>
<path d="M33.792 21.992H30.56V25.304H28.864V21.992H25.632V20.456H28.864V17.144H30.56V20.456H33.792V21.992ZM48.0581 16.904H42.6981V20.088C42.9221 19.7893 43.2528 19.5387 43.6901 19.336C44.1381 19.1333 44.6128 19.032 45.1141 19.032C46.0101 19.032 46.7355 19.224 47.2901 19.608C47.8555 19.992 48.2555 20.4773 48.4901 21.064C48.7355 21.6507 48.8581 22.2693 48.8581 22.92C48.8581 23.7093 48.7035 24.4133 48.3941 25.032C48.0955 25.64 47.6421 26.12 47.0341 26.472C46.4368 26.824 45.7008 27 44.8261 27C43.6635 27 42.7301 26.712 42.0261 26.136C41.3221 25.56 40.9008 24.7973 40.7621 23.848H42.5381C42.6555 24.3493 42.9168 24.7493 43.3221 25.048C43.7275 25.336 44.2341 25.48 44.8421 25.48C45.5995 25.48 46.1648 25.2507 46.5381 24.792C46.9221 24.3333 47.1141 23.7253 47.1141 22.968C47.1141 22.2 46.9221 21.6133 46.5381 21.208C46.1541 20.792 45.5888 20.584 44.8421 20.584C44.3195 20.584 43.8768 20.7173 43.5141 20.984C43.1621 21.24 42.9061 21.592 42.7461 22.04H41.0181V15.304H48.0581V16.904ZM66.8651 15.88V27H65.0411V19.384L61.6491 27H60.3851L56.9771 19.384V27H55.1531V15.88H57.1211L61.0251 24.6L64.9131 15.88H66.8651ZM73.0865 27.144C72.2545 27.144 71.5025 26.9573 70.8305 26.584C70.1585 26.2 69.6305 25.6667 69.2465 24.984C68.8625 24.2907 68.6705 23.4907 68.6705 22.584C68.6705 21.688 68.8678 20.8933 69.2625 20.2C69.6572 19.5067 70.1958 18.9733 70.8785 18.6C71.5612 18.2267 72.3238 18.04 73.1665 18.04C74.0092 18.04 74.7718 18.2267 75.4545 18.6C76.1372 18.9733 76.6758 19.5067 77.0705 20.2C77.4652 20.8933 77.6625 21.688 77.6625 22.584C77.6625 23.48 77.4598 24.2747 77.0545 24.968C76.6492 25.6613 76.0945 26.2 75.3905 26.584C74.6972 26.9573 73.9292 27.144 73.0865 27.144ZM73.0865 25.56C73.5558 25.56 73.9932 25.448 74.3985 25.224C74.8145 25 75.1505 24.664 75.4065 24.216C75.6625 23.768 75.7905 23.224 75.7905 22.584C75.7905 21.944 75.6678 21.4053 75.4225 20.968C75.1772 20.52 74.8518 20.184 74.4465 19.96C74.0412 19.736 73.6038 19.624 73.1345 19.624C72.6652 19.624 72.2278 19.736 71.8225 19.96C71.4278 20.184 71.1132 20.52 70.8785 20.968C70.6438 21.4053 70.5265 21.944 70.5265 22.584C70.5265 23.5333 70.7665 24.2693 71.2465 24.792C71.7372 25.304 72.3505 25.56 73.0865 25.56ZM81.2896 19.464C81.5563 19.016 81.9083 18.6693 82.3456 18.424C82.7936 18.168 83.3216 18.04 83.9296 18.04V19.928H83.4656C82.751 19.928 82.207 20.1093 81.8336 20.472C81.471 20.8347 81.2896 21.464 81.2896 22.36V27H79.4656V18.184H81.2896V19.464ZM93.6863 22.376C93.6863 22.7067 93.6649 23.0053 93.6223 23.272H86.8863C86.9396 23.976 87.2009 24.5413 87.6703 24.968C88.1396 25.3947 88.7156 25.608 89.3983 25.608C90.3796 25.608 91.0729 25.1973 91.4783 24.376H93.4462C93.1796 25.1867 92.6943 25.8533 91.9903 26.376C91.2969 26.888 90.4329 27.144 89.3983 27.144C88.5556 27.144 87.7983 26.9573 87.1263 26.584C86.4649 26.2 85.9423 25.6667 85.5583 24.984C85.1849 24.2907 84.9983 23.4907 84.9983 22.584C84.9983 21.6773 85.1796 20.8827 85.5423 20.2C85.9156 19.5067 86.4329 18.9733 87.0943 18.6C87.7663 18.2267 88.5343 18.04 89.3983 18.04C90.2303 18.04 90.9716 18.2213 91.6223 18.584C92.2729 18.9467 92.7796 19.4587 93.1423 20.12C93.5049 20.7707 93.6863 21.5227 93.6863 22.376ZM91.7823 21.8C91.7716 21.128 91.5316 20.5893 91.0623 20.184C90.5929 19.7787 90.0116 19.576 89.3183 19.576C88.6889 19.576 88.1503 19.7787 87.7023 20.184C87.2543 20.5787 86.9876 21.1173 86.9023 21.8H91.7823Z" fill="#3A643B"/>
</svg>
