<svg width="135" height="42" viewBox="0 0 135 42" fill="none" xmlns="http://www.w3.org/2000/svg">
<rect width="135" height="42" rx="18" fill="#F7F7FC"/>
<path d="M13.024 17.352V20.616H16.864V22.104H13.024V25.512H17.344V27H11.2V15.864H17.344V17.352H13.024ZM24.0386 18.04C24.732 18.04 25.3506 18.184 25.8946 18.472C26.4493 18.76 26.8813 19.1867 27.1906 19.752C27.5 20.3173 27.6546 21 27.6546 21.8V27H25.8466V22.072C25.8466 21.2827 25.6493 20.68 25.2546 20.264C24.86 19.8373 24.3213 19.624 23.6386 19.624C22.956 19.624 22.412 19.8373 22.0066 20.264C21.612 20.68 21.4146 21.2827 21.4146 22.072V27H19.5906V18.184H21.4146V19.192C21.7133 18.8293 22.092 18.5467 22.5506 18.344C23.02 18.1413 23.516 18.04 24.0386 18.04ZM29.3733 22.552C29.3733 21.6667 29.5546 20.8827 29.9173 20.2C30.2906 19.5173 30.7919 18.9893 31.4213 18.616C32.0613 18.232 32.7706 18.04 33.5493 18.04C34.1253 18.04 34.6906 18.168 35.2453 18.424C35.8106 18.6693 36.2586 19 36.5893 19.416V15.16H38.4293V27H36.5893V25.672C36.2906 26.0987 35.8746 26.4507 35.3413 26.728C34.8186 27.0053 34.2159 27.144 33.5333 27.144C32.7653 27.144 32.0613 26.952 31.4213 26.568C30.7919 26.1733 30.2906 25.6293 29.9173 24.936C29.5546 24.232 29.3733 23.4373 29.3733 22.552ZM36.5893 22.584C36.5893 21.976 36.4613 21.448 36.2053 21C35.9599 20.552 35.6346 20.2107 35.2293 19.976C34.8239 19.7413 34.3866 19.624 33.9173 19.624C33.4479 19.624 33.0106 19.7413 32.6053 19.976C32.1999 20.2 31.8693 20.536 31.6133 20.984C31.3679 21.4213 31.2453 21.944 31.2453 22.552C31.2453 23.16 31.3679 23.6933 31.6133 24.152C31.8693 24.6107 32.1999 24.9627 32.6053 25.208C33.0213 25.4427 33.4586 25.56 33.9173 25.56C34.3866 25.56 34.8239 25.4427 35.2293 25.208C35.6346 24.9733 35.9599 24.632 36.2053 24.184C36.4613 23.7253 36.5893 23.192 36.5893 22.584ZM44.649 27.144C43.817 27.144 43.065 26.9573 42.393 26.584C41.721 26.2 41.193 25.6667 40.809 24.984C40.425 24.2907 40.233 23.4907 40.233 22.584C40.233 21.688 40.4303 20.8933 40.825 20.2C41.2197 19.5067 41.7583 18.9733 42.441 18.6C43.1237 18.2267 43.8863 18.04 44.729 18.04C45.5717 18.04 46.3343 18.2267 47.017 18.6C47.6997 18.9733 48.2383 19.5067 48.633 20.2C49.0277 20.8933 49.225 21.688 49.225 22.584C49.225 23.48 49.0223 24.2747 48.617 24.968C48.2117 25.6613 47.657 26.2 46.953 26.584C46.2597 26.9573 45.4917 27.144 44.649 27.144ZM44.649 25.56C45.1183 25.56 45.5557 25.448 45.961 25.224C46.377 25 46.713 24.664 46.969 24.216C47.225 23.768 47.353 23.224 47.353 22.584C47.353 21.944 47.2303 21.4053 46.985 20.968C46.7397 20.52 46.4143 20.184 46.009 19.96C45.6037 19.736 45.1663 19.624 44.697 19.624C44.2277 19.624 43.7903 19.736 43.385 19.96C42.9903 20.184 42.6757 20.52 42.441 20.968C42.2063 21.4053 42.089 21.944 42.089 22.584C42.089 23.5333 42.329 24.2693 42.809 24.792C43.2997 25.304 43.913 25.56 44.649 25.56ZM61.7001 18.04C62.3935 18.04 63.0121 18.184 63.5561 18.472C64.1108 18.76 64.5428 19.1867 64.8521 19.752C65.1721 20.3173 65.3321 21 65.3321 21.8V27H63.5241V22.072C63.5241 21.2827 63.3268 20.68 62.9321 20.264C62.5375 19.8373 61.9988 19.624 61.3161 19.624C60.6335 19.624 60.0895 19.8373 59.6841 20.264C59.2895 20.68 59.0921 21.2827 59.0921 22.072V27H57.2841V22.072C57.2841 21.2827 57.0868 20.68 56.6921 20.264C56.2975 19.8373 55.7588 19.624 55.0761 19.624C54.3935 19.624 53.8495 19.8373 53.4441 20.264C53.0495 20.68 52.8521 21.2827 52.8521 22.072V27H51.0281V18.184H52.8521V19.192C53.1508 18.8293 53.5295 18.5467 53.9881 18.344C54.4468 18.1413 54.9375 18.04 55.4601 18.04C56.1641 18.04 56.7935 18.1893 57.3481 18.488C57.9028 18.7867 58.3295 19.2187 58.6281 19.784C58.8948 19.2507 59.3108 18.8293 59.8761 18.52C60.4415 18.2 61.0495 18.04 61.7001 18.04ZM75.7331 22.376C75.7331 22.7067 75.7118 23.0053 75.6691 23.272H68.9331C68.9865 23.976 69.2478 24.5413 69.7171 24.968C70.1865 25.3947 70.7625 25.608 71.4451 25.608C72.4265 25.608 73.1198 25.1973 73.5251 24.376H75.4931C75.2265 25.1867 74.7411 25.8533 74.0371 26.376C73.3438 26.888 72.4798 27.144 71.4451 27.144C70.6025 27.144 69.8451 26.9573 69.1731 26.584C68.5118 26.2 67.9891 25.6667 67.6051 24.984C67.2318 24.2907 67.0451 23.4907 67.0451 22.584C67.0451 21.6773 67.2265 20.8827 67.5891 20.2C67.9625 19.5067 68.4798 18.9733 69.1411 18.6C69.8131 18.2267 70.5811 18.04 71.4451 18.04C72.2771 18.04 73.0185 18.2213 73.6691 18.584C74.3198 18.9467 74.8265 19.4587 75.1891 20.12C75.5518 20.7707 75.7331 21.5227 75.7331 22.376ZM73.8291 21.8C73.8185 21.128 73.5785 20.5893 73.1091 20.184C72.6398 19.7787 72.0585 19.576 71.3651 19.576C70.7358 19.576 70.1971 19.7787 69.7491 20.184C69.3011 20.5787 69.0345 21.1173 68.9491 21.8H73.8291ZM79.6561 19.672V24.552C79.6561 24.8827 79.7308 25.1227 79.8801 25.272C80.0401 25.4107 80.3068 25.48 80.6801 25.48H81.8001V27H80.3601C79.5388 27 78.9095 26.808 78.4721 26.424C78.0348 26.04 77.8161 25.416 77.8161 24.552V19.672H76.7761V18.184H77.8161V15.992H79.6561V18.184H81.8001V19.672H79.6561ZM85.3053 19.464C85.5719 19.016 85.9239 18.6693 86.3613 18.424C86.8093 18.168 87.3373 18.04 87.9453 18.04V19.928H87.4813C86.7666 19.928 86.2226 20.1093 85.8493 20.472C85.4866 20.8347 85.3053 21.464 85.3053 22.36V27H83.4813V18.184H85.3053V19.464ZM90.5499 17.016C90.2192 17.016 89.9419 16.904 89.7179 16.68C89.4939 16.456 89.3819 16.1787 89.3819 15.848C89.3819 15.5173 89.4939 15.24 89.7179 15.016C89.9419 14.792 90.2192 14.68 90.5499 14.68C90.8699 14.68 91.1419 14.792 91.3659 15.016C91.5899 15.24 91.7019 15.5173 91.7019 15.848C91.7019 16.1787 91.5899 16.456 91.3659 16.68C91.1419 16.904 90.8699 17.016 90.5499 17.016ZM91.4459 18.184V27H89.6219V18.184H91.4459ZM97.6646 27.144C96.8326 27.144 96.0806 26.9573 95.4086 26.584C94.7366 26.2 94.2086 25.6667 93.8246 24.984C93.4406 24.2907 93.2486 23.4907 93.2486 22.584C93.2486 21.688 93.446 20.8933 93.8406 20.2C94.2353 19.5067 94.774 18.9733 95.4566 18.6C96.1393 18.2267 96.902 18.04 97.7446 18.04C98.5873 18.04 99.35 18.2267 100.033 18.6C100.715 18.9733 101.254 19.5067 101.649 20.2C102.043 20.8933 102.241 21.688 102.241 22.584C102.241 23.48 102.038 24.2747 101.633 24.968C101.227 25.6613 100.673 26.2 99.9686 26.584C99.2753 26.9573 98.5073 27.144 97.6646 27.144ZM97.6646 25.56C98.134 25.56 98.5713 25.448 98.9766 25.224C99.3926 25 99.7286 24.664 99.9846 24.216C100.241 23.768 100.369 23.224 100.369 22.584C100.369 21.944 100.246 21.4053 100.001 20.968C99.7553 20.52 99.43 20.184 99.0246 19.96C98.6193 19.736 98.182 19.624 97.7126 19.624C97.2433 19.624 96.806 19.736 96.4006 19.96C96.006 20.184 95.6913 20.52 95.4566 20.968C95.222 21.4053 95.1046 21.944 95.1046 22.584C95.1046 23.5333 95.3446 24.2693 95.8246 24.792C96.3153 25.304 96.9286 25.56 97.6646 25.56ZM107.244 27.144C106.55 27.144 105.926 27.0213 105.372 26.776C104.828 26.52 104.396 26.1787 104.076 25.752C103.756 25.3147 103.585 24.8293 103.564 24.296H105.452C105.484 24.6693 105.66 24.984 105.98 25.24C106.31 25.4853 106.721 25.608 107.212 25.608C107.724 25.608 108.118 25.512 108.396 25.32C108.684 25.1173 108.828 24.8613 108.828 24.552C108.828 24.2213 108.668 23.976 108.348 23.816C108.038 23.656 107.542 23.48 106.86 23.288C106.198 23.1067 105.66 22.9307 105.244 22.76C104.828 22.5893 104.465 22.328 104.156 21.976C103.857 21.624 103.708 21.16 103.708 20.584C103.708 20.1147 103.846 19.688 104.124 19.304C104.401 18.9093 104.796 18.6 105.308 18.376C105.83 18.152 106.428 18.04 107.1 18.04C108.102 18.04 108.908 18.296 109.516 18.808C110.134 19.3093 110.465 19.9973 110.508 20.872H108.684C108.652 20.4773 108.492 20.1627 108.204 19.928C107.916 19.6933 107.526 19.576 107.036 19.576C106.556 19.576 106.188 19.6667 105.932 19.848C105.676 20.0293 105.548 20.2693 105.548 20.568C105.548 20.8027 105.633 21 105.804 21.16C105.974 21.32 106.182 21.448 106.428 21.544C106.673 21.6293 107.036 21.7413 107.516 21.88C108.156 22.0507 108.678 22.2267 109.084 22.408C109.5 22.5787 109.857 22.8347 110.156 23.176C110.454 23.5173 110.609 23.9707 110.62 24.536C110.62 25.0373 110.481 25.4853 110.204 25.88C109.926 26.2747 109.532 26.584 109.02 26.808C108.518 27.032 107.926 27.144 107.244 27.144ZM113.519 17.016C113.188 17.016 112.911 16.904 112.687 16.68C112.463 16.456 112.351 16.1787 112.351 15.848C112.351 15.5173 112.463 15.24 112.687 15.016C112.911 14.792 113.188 14.68 113.519 14.68C113.839 14.68 114.111 14.792 114.335 15.016C114.559 15.24 114.671 15.5173 114.671 15.848C114.671 16.1787 114.559 16.456 114.335 16.68C114.111 16.904 113.839 17.016 113.519 17.016ZM114.415 18.184V27H112.591V18.184H114.415ZM120.009 27.144C119.316 27.144 118.692 27.0213 118.137 26.776C117.593 26.52 117.161 26.1787 116.841 25.752C116.521 25.3147 116.351 24.8293 116.329 24.296H118.217C118.249 24.6693 118.425 24.984 118.745 25.24C119.076 25.4853 119.487 25.608 119.977 25.608C120.489 25.608 120.884 25.512 121.161 25.32C121.449 25.1173 121.593 24.8613 121.593 24.552C121.593 24.2213 121.433 23.976 121.113 23.816C120.804 23.656 120.308 23.48 119.625 23.288C118.964 23.1067 118.425 22.9307 118.009 22.76C117.593 22.5893 117.231 22.328 116.921 21.976C116.623 21.624 116.473 21.16 116.473 20.584C116.473 20.1147 116.612 19.688 116.889 19.304C117.167 18.9093 117.561 18.6 118.073 18.376C118.596 18.152 119.193 18.04 119.865 18.04C120.868 18.04 121.673 18.296 122.281 18.808C122.9 19.3093 123.231 19.9973 123.273 20.872H121.449C121.417 20.4773 121.257 20.1627 120.969 19.928C120.681 19.6933 120.292 19.576 119.801 19.576C119.321 19.576 118.953 19.6667 118.697 19.848C118.441 20.0293 118.313 20.2693 118.313 20.568C118.313 20.8027 118.399 21 118.569 21.16C118.74 21.32 118.948 21.448 119.193 21.544C119.439 21.6293 119.801 21.7413 120.281 21.88C120.921 22.0507 121.444 22.2267 121.849 22.408C122.265 22.5787 122.623 22.8347 122.921 23.176C123.22 23.5173 123.375 23.9707 123.385 24.536C123.385 25.0373 123.247 25.4853 122.969 25.88C122.692 26.2747 122.297 26.584 121.785 26.808C121.284 27.032 120.692 27.144 120.009 27.144Z" fill="#3A643B"/>
</svg>
