<svg width="472" height="52" viewBox="0 0 472 52" fill="none" xmlns="http://www.w3.org/2000/svg">
<rect width="48" height="48" rx="6" fill="#F7F7FC"/>
<path d="M35 17V31C35 31.55 34.8043 32.021 34.413 32.413C34.0217 32.805 33.5507 33.0007 33 33H30C29.7167 33 29.4793 32.904 29.288 32.712C29.0967 32.52 29.0007 32.2827 29 32C29 31.7167 29.096 31.4793 29.288 31.288C29.48 31.0967 29.7173 31.0007 30 31H33V17H24V17.5C24 17.7833 23.904 18.021 23.712 18.213C23.52 18.405 23.2827 18.5007 23 18.5C22.7167 18.5 22.4793 18.404 22.288 18.212C22.0967 18.02 22.0007 17.7827 22 17.5V16.95C22 16.4167 22.1917 15.9583 22.575 15.575C22.9583 15.1917 23.4167 15 23.95 15H33C33.55 15 34.021 15.196 34.413 15.588C34.805 15.98 35.0007 16.4507 35 17ZM13 24.025C13 23.6917 13.075 23.3833 13.225 23.1C13.375 22.8167 13.5833 22.5833 13.85 22.4L18.85 18.825C19.0333 18.6917 19.221 18.5957 19.413 18.537C19.605 18.4783 19.8007 18.4493 20 18.45C20.2 18.45 20.396 18.4793 20.588 18.538C20.78 18.5967 20.9673 18.6923 21.15 18.825L26.15 22.4C26.4167 22.5833 26.625 22.8167 26.775 23.1C26.925 23.3833 27 23.6917 27 24.025V31C27 31.55 26.8043 32.021 26.413 32.413C26.0217 32.805 25.5507 33.0007 25 33H23C22.45 33 21.9793 32.8043 21.588 32.413C21.1967 32.0217 21.0007 31.5507 21 31V28H19V31C19 31.55 18.8043 32.021 18.413 32.413C18.0217 32.805 17.5507 33.0007 17 33H15C14.45 33 13.9793 32.8043 13.588 32.413C13.1967 32.0217 13.0007 31.5507 13 31V24.025ZM15 24V31H17V28C17 27.45 17.196 26.9793 17.588 26.588C17.98 26.1967 18.4507 26.0007 19 26H21C21.55 26 22.021 26.196 22.413 26.588C22.805 26.98 23.0007 27.4507 23 28V31H25V24L20 20.45L15 24ZM29.5 21H30.5C30.6333 21 30.75 20.95 30.85 20.85C30.95 20.75 31 20.6333 31 20.5V19.5C31 19.3667 30.95 19.25 30.85 19.15C30.75 19.05 30.6333 19 30.5 19H29.5C29.3667 19 29.25 19.05 29.15 19.15C29.05 19.25 29 19.3667 29 19.5V20.5C29 20.6333 29.05 20.75 29.15 20.85C29.25 20.95 29.3667 21 29.5 21ZM29.5 25H30.5C30.6333 25 30.75 24.95 30.85 24.85C30.95 24.75 31 24.6333 31 24.5V23.5C31 23.3667 30.95 23.25 30.85 23.15C30.75 23.05 30.6333 23 30.5 23H29.5C29.3667 23 29.25 23.05 29.15 23.15C29.05 23.25 29 23.3667 29 23.5V24.5C29 24.6333 29.05 24.75 29.15 24.85C29.25 24.95 29.3667 25 29.5 25ZM29.5 29H30.5C30.6333 29 30.75 28.95 30.85 28.85C30.95 28.75 31 28.6333 31 28.5V27.5C31 27.3667 30.95 27.25 30.85 27.15C30.75 27.05 30.6333 27 30.5 27H29.5C29.3667 27 29.25 27.05 29.15 27.15C29.05 27.25 29 27.3667 29 27.5V28.5C29 28.6333 29.05 28.75 29.15 28.85C29.25 28.95 29.3667 29 29.5 29Z" fill="#2E37A4"/>
<path d="M70.9208 5.28447L70.9408 16.4045L69.1168 16.4077L69.1031 8.79175L65.7248 16.4139L64.4608 16.4161L61.0391 8.80628L61.0528 16.4223L59.2288 16.4255L59.2088 5.30556L61.1768 5.30202L65.0965 14.015L68.9688 5.28799L70.9208 5.28447ZM74.2482 6.41449C73.9175 6.41508 73.64 6.30358 73.4156 6.07998C73.1912 5.85639 73.0787 5.57926 73.0781 5.24859C73.0775 4.91792 73.189 4.64039 73.4126 4.41599C73.6362 4.19158 73.9133 4.07908 74.244 4.07849C74.564 4.07791 74.8362 4.18942 75.0606 4.41302C75.285 4.63661 75.3975 4.91375 75.3981 5.24441C75.3987 5.57508 75.2872 5.85261 75.0636 6.07702C74.84 6.30142 74.5682 6.41391 74.2482 6.41449ZM75.1463 7.58087L75.1622 16.3969L73.3382 16.4001L73.3223 7.58415L75.1463 7.58087ZM76.9409 11.9456C76.9393 11.0603 77.1192 10.276 77.4807 9.59267C77.8528 8.90933 78.3531 8.38043 78.9818 8.00596C79.6211 7.62081 80.3301 7.42753 81.1088 7.42613C81.6848 7.4251 82.2503 7.55208 82.8055 7.80708C83.3712 8.05139 83.8198 8.38125 84.1512 8.79666L84.1436 4.54066L85.9836 4.53735L86.0049 16.3773L84.1649 16.3806L84.1625 15.0526C83.8646 15.4799 83.4492 15.8326 82.9164 16.1109C82.3942 16.3892 81.7918 16.5289 81.1092 16.5301C80.3412 16.5315 79.6368 16.3408 78.9961 15.958C78.3661 15.5644 77.8638 15.0213 77.4892 14.3287C77.1253 13.6253 76.9425 12.831 76.9409 11.9456ZM84.1569 11.9647C84.1558 11.3567 84.0269 10.8289 83.7701 10.3813C83.524 9.93379 83.198 9.59304 82.7922 9.3591C82.3865 9.12517 81.9489 9.00862 81.4796 9.00947C81.0103 9.01031 80.5732 9.12843 80.1683 9.36383C79.7633 9.58856 79.4333 9.92515 79.1781 10.3736C78.9335 10.8114 78.8118 11.3343 78.8129 11.9423C78.814 12.5503 78.9376 13.0834 79.1838 13.5416C79.4406 13.9998 79.7719 14.3512 80.1777 14.5958C80.5941 14.8297 81.0316 14.9463 81.4903 14.9455C81.9596 14.9446 82.3968 14.8265 82.8017 14.5911C83.2066 14.3557 83.5313 14.0138 83.7758 13.5653C84.031 13.1062 84.158 12.5727 84.1569 11.9647ZM90.5154 9.0412L90.5242 13.9212C90.5248 14.2519 90.5999 14.4917 90.7495 14.6408C90.9098 14.7792 91.1766 14.848 91.5499 14.8473L92.6699 14.8453L92.6726 16.3653L91.2326 16.3679C90.4113 16.3694 89.7816 16.1785 89.3436 15.7953C88.9056 15.4121 88.6858 14.7885 88.6842 13.9245L88.6754 9.04451L87.6354 9.04638L87.6328 7.55839L88.6728 7.55651L88.6688 5.36452L90.5088 5.3612L90.5128 7.5532L92.6568 7.54934L92.6594 9.03734L90.5154 9.0412ZM98.178 16.4994C97.346 16.5009 96.5937 16.3156 95.921 15.9435C95.2483 15.5607 94.7194 15.0283 94.3341 14.3463C93.9489 13.6537 93.7554 12.854 93.7538 11.9474C93.7522 11.0514 93.9481 10.2564 94.3415 9.56231C94.7349 8.86826 95.2726 8.33396 95.9546 7.9594C96.6366 7.58484 97.3989 7.3968 98.2416 7.39528C99.0843 7.39376 99.8473 7.57906 100.531 7.95116C101.214 8.32326 101.754 8.85563 102.149 9.54825C102.545 10.2409 102.744 11.0352 102.746 11.9312C102.747 12.8272 102.546 13.6222 102.142 14.3163C101.738 15.0103 101.184 15.55 100.481 15.9353C99.7883 16.3098 99.0207 16.4979 98.178 16.4994ZM98.1752 14.9154C98.6445 14.9146 99.0816 14.8018 99.4865 14.5771C99.9021 14.3523 100.238 14.0157 100.493 13.5672C100.748 13.1188 100.875 12.5745 100.874 11.9345C100.873 11.2945 100.749 10.7561 100.503 10.3192C100.257 9.87166 99.9308 9.53624 99.5251 9.31297C99.1193 9.0897 98.6818 8.97849 98.2125 8.97934C97.7431 8.98018 97.306 9.09297 96.9011 9.3177C96.5068 9.54241 96.1927 9.87897 95.9589 10.3274C95.725 10.7652 95.6086 11.304 95.6098 11.944C95.6115 12.8934 95.8528 13.6289 96.3338 14.1507C96.8254 14.6618 97.4392 14.9167 98.1752 14.9154ZM116.381 7.50662L113.661 16.3275L111.741 16.331L109.953 9.8222L108.189 16.3374L106.269 16.3408L103.501 7.52981L105.357 7.52647L107.21 14.6111L109.069 7.51978L110.973 7.51636L112.778 14.5691L114.589 7.50984L116.381 7.50662ZM122.192 7.35215C122.885 7.3509 123.504 7.49379 124.049 7.78081C124.604 8.06781 125.037 8.4937 125.347 9.05847C125.657 9.62325 125.813 10.3056 125.815 11.1056L125.824 16.3056L124.016 16.3089L124.007 11.3809C124.006 10.5916 123.807 9.98925 123.412 9.57396C123.016 9.148 122.477 8.93564 121.795 8.93687C121.112 8.9381 120.568 9.15241 120.164 9.57981C119.77 9.99652 119.574 10.5995 119.575 11.3889L119.584 16.3169L117.76 16.3201L117.744 7.50416L119.568 7.50088L119.57 8.50888C119.868 8.14567 120.246 7.86232 120.704 7.65883C121.173 7.45532 121.669 7.35309 122.192 7.35215ZM143.999 5.15288L144.019 16.2729L142.195 16.2761L142.181 8.66016L138.803 16.2823L137.539 16.2845L134.117 8.67468L134.131 16.2907L132.307 16.294L132.287 5.17397L134.255 5.17043L138.174 13.8834L142.047 5.15639L143.999 5.15288ZM154.488 11.63C154.488 11.9607 154.468 12.2594 154.425 12.5261L147.689 12.5382C147.744 13.2421 148.006 13.807 148.477 14.2328C148.947 14.6587 149.523 14.8709 150.206 14.8697C151.187 14.868 151.88 14.456 152.283 13.634L154.251 13.6304C153.986 14.4416 153.502 15.1091 152.799 15.6331C152.107 16.1463 151.243 16.4039 150.208 16.4057C149.366 16.4072 148.608 16.2219 147.935 15.8498C147.273 15.467 146.75 14.9346 146.365 14.2526C145.99 13.56 145.802 12.7603 145.8 11.8536C145.799 10.947 145.978 10.152 146.34 9.46867C146.712 8.77467 147.228 8.2404 147.889 7.86588C148.56 7.49134 149.328 7.30329 150.192 7.30173C151.024 7.30023 151.766 7.48023 152.417 7.84173C153.068 8.20322 153.576 8.71431 153.94 9.37499C154.304 10.025 154.486 10.7767 154.488 11.63ZM152.583 11.0574C152.571 10.3855 152.33 9.84722 151.86 9.44273C151.39 9.03824 150.808 8.83662 150.115 8.83787C149.485 8.83901 148.947 9.04264 148.5 9.44878C148.053 9.84425 147.787 10.3834 147.703 11.0662L152.583 11.0574ZM155.675 11.8039C155.674 10.9185 155.853 10.1342 156.215 9.45089C156.587 8.76755 157.087 8.23865 157.716 7.86418C158.355 7.47903 159.064 7.28575 159.843 7.28435C160.419 7.28332 160.985 7.4103 161.54 7.6653C162.105 7.90961 162.554 8.23947 162.885 8.65488L162.878 4.39888L164.718 4.39557L164.739 16.2356L162.899 16.2389L162.897 14.9109C162.599 15.3381 162.183 15.6908 161.651 15.9691C161.128 16.2474 160.526 16.3871 159.843 16.3884C159.075 16.3897 158.371 16.199 157.73 15.8162C157.1 15.4226 156.598 14.8795 156.223 14.1869C155.86 13.4835 155.677 12.6892 155.675 11.8039ZM162.891 11.8229C162.89 11.2149 162.761 10.6871 162.504 10.2396C162.258 9.79201 161.932 9.45126 161.526 9.21732C161.121 8.98339 160.683 8.86684 160.214 8.86769C159.745 8.86853 159.307 8.98665 158.903 9.22205C158.498 9.44678 158.168 9.78337 157.912 10.2318C157.668 10.6696 157.546 11.1925 157.547 11.8005C157.548 12.4085 157.672 12.9416 157.918 13.3998C158.175 13.858 158.506 14.2094 158.912 14.454C159.328 14.688 159.766 14.8045 160.225 14.8037C160.694 14.8028 161.131 14.6847 161.536 14.4493C161.941 14.2139 162.266 13.872 162.51 13.4236C162.765 12.9644 162.892 12.4309 162.891 11.8229ZM168.045 6.24558C167.714 6.24618 167.437 6.13468 167.212 5.91108C166.988 5.68748 166.875 5.41035 166.875 5.07969C166.874 4.74902 166.986 4.47149 167.209 4.24708C167.433 4.02268 167.71 3.91018 168.041 3.90958C168.361 3.90901 168.633 4.02052 168.857 4.24411C169.082 4.46771 169.194 4.74484 169.195 5.07551C169.195 5.40617 169.084 5.68371 168.86 5.90811C168.637 6.13252 168.365 6.245 168.045 6.24558ZM168.943 7.41197L168.959 16.228L167.135 16.2312L167.119 7.41525L168.943 7.41197ZM170.738 11.8087C170.736 10.9021 170.916 10.1071 171.277 9.42377C171.649 8.72976 172.161 8.19551 172.811 7.821C173.46 7.4465 174.207 7.25849 175.049 7.25697C176.116 7.25505 176.997 7.50946 177.691 8.02021C178.396 8.52028 178.872 9.23942 179.119 10.1776L177.151 10.1812C176.99 9.74415 176.733 9.40327 176.381 9.15857C176.028 8.91388 175.586 8.79201 175.052 8.79297C174.306 8.79431 173.709 9.06205 173.262 9.59619C172.825 10.1196 172.608 10.856 172.61 11.8054C172.611 12.7547 172.831 13.4956 173.27 14.0282C173.719 14.5607 174.316 14.8263 175.063 14.825C176.119 14.8231 176.817 14.3578 177.157 13.4292L179.125 13.4256C178.87 14.3221 178.392 15.0376 177.688 15.5722C176.985 16.0962 176.111 16.3591 175.066 16.361C174.223 16.3625 173.476 16.1772 172.825 15.805C172.174 15.4222 171.661 14.8898 171.286 14.2078C170.922 13.5151 170.739 12.7154 170.738 11.8087ZM180.331 11.7595C180.33 10.8741 180.51 10.0898 180.871 9.40649C181.243 8.72315 181.744 8.19425 182.372 7.81978C183.012 7.43463 183.715 7.24136 184.483 7.23998C185.177 7.23873 185.779 7.37631 186.292 7.65272C186.815 7.91845 187.232 8.2537 187.542 8.65848L187.539 7.37848L189.379 7.37517L189.395 16.1912L187.555 16.1945L187.553 14.8825C187.244 15.299 186.824 15.6464 186.291 15.9247C185.758 16.203 185.15 16.3428 184.468 16.344C183.71 16.3454 183.017 16.1546 182.387 15.7718C181.757 15.3782 181.254 14.8351 180.88 14.1425C180.516 13.4391 180.333 12.6448 180.331 11.7595ZM187.547 11.7785C187.546 11.1705 187.417 10.6427 187.161 10.1952C186.914 9.74761 186.588 9.40686 186.183 9.17292C185.777 8.93899 185.339 8.82244 184.87 8.82329C184.401 8.82413 183.964 8.94225 183.559 9.17765C183.154 9.40238 182.824 9.73897 182.569 10.1874C182.324 10.6252 182.202 11.1481 182.203 11.7561C182.204 12.3641 182.328 12.8972 182.574 13.3554C182.831 13.8136 183.162 14.165 183.568 14.4096C183.985 14.6436 184.422 14.7601 184.881 14.7593C185.35 14.7584 185.787 14.6403 186.192 14.4049C186.597 14.1695 186.922 13.8276 187.166 13.3792C187.421 12.92 187.548 12.3865 187.547 11.7785ZM193.594 4.34357L193.615 16.1836L191.791 16.1868L191.77 4.34686L193.594 4.34357ZM199.548 10.5889C199.546 9.50086 199.795 8.52441 200.295 7.65951C200.805 6.79459 201.492 6.12135 202.355 5.6398C203.229 5.14755 204.183 4.9005 205.218 4.89864C206.402 4.89651 207.453 5.18795 208.371 5.77296C209.3 6.34729 209.974 7.16741 210.392 8.23333L208.2 8.23728C207.911 7.65113 207.51 7.21452 206.997 6.92744C206.485 6.64036 205.893 6.49743 205.221 6.49864C204.485 6.49996 203.829 6.66648 203.254 6.99818C202.678 7.32988 202.226 7.80537 201.896 8.42463C201.577 9.04387 201.419 9.76416 201.42 10.5855C201.422 11.4068 201.583 12.1265 201.904 12.7446C202.236 13.3627 202.69 13.8419 203.267 14.1822C203.843 14.5118 204.499 14.6759 205.235 14.6746C205.907 14.6734 206.499 14.5283 207.011 14.2394C207.522 13.9505 207.921 13.5125 208.208 12.9253L210.4 12.9213C209.986 13.9887 209.316 14.8113 208.389 15.3889C207.472 15.9666 206.422 16.2565 205.238 16.2586C204.193 16.2605 203.238 16.0222 202.373 15.5438C201.508 15.0547 200.819 14.3786 200.305 13.5155C199.802 12.6524 199.55 11.6769 199.548 10.5889ZM214.344 4.30621L214.365 16.1462L212.541 16.1495L212.52 4.30949L214.344 4.30621ZM217.67 6.15622C217.339 6.15681 217.062 6.04531 216.837 5.82172C216.613 5.59812 216.5 5.32099 216.5 4.99032C216.499 4.65966 216.611 4.38212 216.834 4.15772C217.058 3.93332 217.335 3.82082 217.666 3.82022C217.986 3.81965 218.258 3.93116 218.482 4.15475C218.707 4.37835 218.819 4.65548 218.82 4.98615C218.82 5.31681 218.709 5.59435 218.485 5.81875C218.262 6.04315 217.99 6.15564 217.67 6.15622ZM218.568 7.3226L218.584 16.1386L216.76 16.1419L216.744 7.32589L218.568 7.3226ZM225.41 7.16628C226.104 7.16503 226.723 7.30792 227.267 7.59494C227.822 7.88194 228.255 8.30783 228.565 8.8726C228.876 9.43738 229.032 10.1198 229.033 10.9198L229.043 16.1198L227.235 16.123L227.226 11.195C227.224 10.4057 227.026 9.80338 226.63 9.38809C226.235 8.96213 225.696 8.74977 225.013 8.751C224.331 8.75223 223.787 8.96654 223.382 9.39394C222.988 9.81065 222.792 10.4137 222.794 11.203L222.803 16.131L220.979 16.1343L220.963 7.31829L222.787 7.31501L222.788 8.323C223.086 7.9598 223.465 7.67645 223.923 7.47296C224.392 7.26945 224.888 7.16722 225.41 7.16628ZM232.279 6.12991C231.949 6.13051 231.671 6.01901 231.447 5.79541C231.222 5.57181 231.11 5.29468 231.109 4.96402C231.108 4.63335 231.22 4.35582 231.444 4.13141C231.667 3.90701 231.944 3.79451 232.275 3.79391C232.595 3.79334 232.867 3.90485 233.092 4.12845C233.316 4.35204 233.428 4.62917 233.429 4.95984C233.43 5.2905 233.318 5.56804 233.095 5.79244C232.871 6.01685 232.599 6.12934 232.279 6.12991ZM233.177 7.2963L233.193 16.1123L231.369 16.1156L231.353 7.29958L233.177 7.2963ZM234.972 11.6931C234.97 10.7864 235.15 9.99141 235.512 9.3081C235.884 8.61409 236.395 8.07984 237.045 7.70533C237.695 7.33083 238.441 7.14282 239.284 7.1413C240.35 7.13938 241.231 7.39379 241.925 7.90454C242.63 8.40461 243.106 9.12375 243.353 10.062L241.385 10.0655C241.224 9.62848 240.968 9.2876 240.615 9.04291C240.263 8.79821 239.82 8.67634 239.287 8.6773C238.54 8.67864 237.943 8.94638 237.496 9.48052C237.06 10.004 236.842 10.7404 236.844 11.6897C236.846 12.639 237.066 13.38 237.504 13.9125C237.953 14.445 238.551 14.7106 239.297 14.7093C240.353 14.7074 241.051 14.2421 241.391 13.3135L243.359 13.31C243.104 14.2064 242.626 14.922 241.923 15.4566C241.22 15.9805 240.345 16.2434 239.3 16.2453C238.457 16.2468 237.71 16.0615 237.059 15.6893C236.408 15.3065 235.895 14.7741 235.52 14.0921C235.156 13.3994 234.974 12.5997 234.972 11.6931Z" fill="#333548"/>
<path d="M62.893 46.7663C62.1463 46.7676 61.4741 46.6409 60.8763 46.3859C60.2785 46.1203 59.8085 45.7479 59.4663 45.2685C59.1241 44.7891 58.9524 44.2294 58.9513 43.5894L60.9033 43.5859C60.9468 44.0658 61.1342 44.4601 61.4654 44.7689C61.8073 45.0776 62.2822 45.2314 62.8902 45.2303C63.5196 45.2292 64.01 45.079 64.3614 44.7797C64.7129 44.4697 64.8882 44.0747 64.8873 43.5947C64.8866 43.2214 64.7741 42.9176 64.5497 42.6833C64.3359 42.449 64.0636 42.2682 63.7327 42.1408C63.4124 42.0134 62.9642 41.8755 62.3879 41.7272C61.6623 41.5365 61.0699 41.3456 60.6109 41.1544C60.1625 40.9525 59.778 40.6439 59.4572 40.2285C59.1365 39.8131 58.9755 39.2587 58.9742 38.5653C58.9731 37.9253 59.1321 37.3651 59.4512 36.8845C59.7703 36.4039 60.2177 36.0351 60.7932 35.7781C61.3688 35.521 62.0352 35.3918 62.7925 35.3905C63.8699 35.3885 64.7503 35.6589 65.434 36.2017C66.1283 36.7338 66.5136 37.4691 66.59 38.4076L64.574 38.4113C64.5412 38.006 64.3486 37.6597 63.9961 37.3723C63.6436 37.0849 63.1793 36.9418 62.6033 36.9428C62.0806 36.9437 61.6542 37.0778 61.324 37.3451C60.9939 37.6124 60.8292 37.9967 60.8301 38.498C60.8307 38.8393 60.9326 39.1218 61.1356 39.3455C61.3494 39.5584 61.6163 39.7286 61.9366 39.856C62.2568 39.9834 62.6944 40.1213 63.2493 40.2696C63.9857 40.471 64.5834 40.6726 65.0424 40.8744C65.5121 41.0762 65.9073 41.3902 66.2281 41.8163C66.5595 42.2317 66.7259 42.7914 66.7271 43.4954C66.7281 44.0607 66.5744 44.5943 66.266 45.0962C65.9682 45.5981 65.5263 46.0042 64.9402 46.3146C64.3647 46.6143 63.6823 46.7649 62.893 46.7663ZM76.9567 42.005C76.9573 42.3356 76.9365 42.6343 76.8943 42.9011L70.1583 42.9132C70.2129 43.6171 70.4753 44.182 70.9454 44.6078C71.4155 45.0336 71.9919 45.2459 72.6745 45.2447C73.6559 45.2429 74.3485 44.831 74.7523 44.0089L76.7203 44.0054C76.4551 44.8165 75.971 45.4841 75.2679 46.008C74.5755 46.5213 73.712 46.7788 72.6773 46.7807C71.8346 46.7822 71.077 46.5969 70.4043 46.2248C69.7423 45.842 69.2186 45.3096 68.8334 44.6276C68.4588 43.9349 68.2707 43.1353 68.2691 42.2286C68.2675 41.3219 68.4474 40.527 68.8088 39.8436C69.1809 39.1496 69.6973 38.6154 70.3579 38.2408C71.0292 37.8663 71.7969 37.6783 72.6609 37.6767C73.4929 37.6752 74.2346 37.8552 74.8859 38.2167C75.5372 38.5782 76.0448 39.0893 76.4086 39.75C76.7725 40.4 76.9552 41.1516 76.9567 42.005ZM75.0517 41.4324C75.0398 40.7604 74.7988 40.2222 74.3288 39.8177C73.8587 39.4132 73.277 39.2116 72.5837 39.2128C71.9543 39.214 71.416 39.4176 70.9688 39.8237C70.5215 40.2192 70.2558 40.7584 70.1717 41.4412L75.0517 41.4324ZM83.1919 37.6577C83.8852 37.6565 84.5041 37.7994 85.0487 38.0864C85.6038 38.3734 86.0366 38.7993 86.347 39.3641C86.6573 39.9288 86.8132 40.6112 86.8147 41.4112L86.824 46.6112L85.016 46.6145L85.0071 41.6865C85.0057 40.8971 84.8073 40.2948 84.4119 39.8795C84.0165 39.4536 83.4774 39.2412 82.7947 39.2425C82.1121 39.2437 81.5685 39.458 81.1639 39.8854C80.77 40.3021 80.5737 40.9051 80.5752 41.6945L80.584 46.6224L78.76 46.6257L78.7442 37.8097L80.5682 37.8065L80.57 38.8145C80.868 38.4513 81.2461 38.1679 81.7044 37.9644C82.1734 37.7609 82.6692 37.6587 83.1919 37.6577ZM90.0607 36.6214C89.73 36.622 89.4525 36.5105 89.2281 36.2869C89.0037 36.0633 88.8912 35.7861 88.8906 35.4555C88.89 35.1248 89.0015 34.8473 89.2251 34.6229C89.4487 34.3985 89.7258 34.286 90.0565 34.2854C90.3764 34.2848 90.6487 34.3963 90.8731 34.6199C91.0975 34.8435 91.21 35.1206 91.2106 35.4513C91.2111 35.782 91.0996 36.0595 90.8761 36.2839C90.6525 36.5083 90.3807 36.6208 90.0607 36.6214ZM90.9588 37.7877L90.9746 46.6037L89.1506 46.607L89.1348 37.791L90.9588 37.7877ZM97.1936 46.7365C96.3616 46.738 95.6093 46.5527 94.9366 46.1806C94.2639 45.7978 93.735 45.2654 93.3497 44.5835C92.9645 43.8908 92.7711 43.0912 92.7694 42.1845C92.7678 41.2885 92.9637 40.4935 93.3571 39.7994C93.7506 39.1054 94.2883 38.5711 94.9703 38.1965C95.6522 37.822 96.4146 37.6339 97.2572 37.6324C98.0999 37.6309 98.8629 37.8162 99.5462 38.1883C100.23 38.5604 100.769 39.0927 101.165 39.7854C101.561 40.478 101.76 41.2723 101.761 42.1683C101.763 43.0643 101.562 43.8593 101.158 44.5534C100.754 45.2475 100.2 45.7871 99.4966 46.1724C98.804 46.547 98.0363 46.735 97.1936 46.7365ZM97.1908 45.1525C97.6601 45.1517 98.0972 45.0389 98.5022 44.8142C98.9178 44.5894 99.2532 44.2528 99.5084 43.8044C99.7635 43.3559 99.8906 42.8117 99.8894 42.1717C99.8883 41.5317 99.7646 40.9932 99.5185 40.5563C99.2724 40.1088 98.9464 39.7734 98.5407 39.5501C98.135 39.3268 97.6974 39.2156 97.2281 39.2165C96.7588 39.2173 96.3216 39.3301 95.9167 39.5548C95.5224 39.7795 95.2084 40.1161 94.9745 40.5645C94.7406 41.0023 94.6243 41.5412 94.6254 42.1812C94.6271 43.1305 94.8685 43.8661 95.3494 44.3879C95.841 44.899 96.4548 45.1539 97.1908 45.1525ZM105.383 39.0418C105.649 38.5933 106 38.246 106.437 37.9999C106.885 37.7431 107.412 37.6141 108.02 37.613L108.024 39.501L107.56 39.5019C106.845 39.5031 106.301 39.6855 105.929 40.0488C105.567 40.4121 105.387 41.0418 105.388 41.9378L105.396 46.5778L103.572 46.581L103.557 37.7651L105.381 37.7618L105.383 39.0418ZM113.253 42.1156C113.252 41.2303 113.432 40.4459 113.793 39.7626C114.165 39.0793 114.666 38.5504 115.294 38.1759C115.934 37.7908 116.643 37.5975 117.421 37.5961C117.997 37.5951 118.563 37.722 119.118 37.977C119.684 38.2214 120.132 38.5512 120.464 38.9666L120.456 34.7106L122.296 34.7073L122.317 46.5473L120.477 46.5506L120.475 45.2226C120.177 45.6498 119.762 46.0026 119.229 46.2809C118.707 46.5591 118.104 46.6989 117.422 46.7001C116.654 46.7015 115.949 46.5108 115.309 46.1279C114.679 45.7344 114.176 45.1913 113.802 44.4986C113.438 43.7953 113.255 43.0009 113.253 42.1156ZM120.469 42.1346C120.468 41.5266 120.339 40.9988 120.083 40.5513C119.836 40.1037 119.51 39.763 119.105 39.5291C118.699 39.2951 118.261 39.1786 117.792 39.1794C117.323 39.1803 116.886 39.2984 116.481 39.5338C116.076 39.7585 115.746 40.0951 115.491 40.5436C115.246 40.9814 115.124 41.5042 115.125 42.1122C115.126 42.7202 115.25 43.2533 115.496 43.7116C115.753 44.1698 116.084 44.5212 116.49 44.7658C116.907 44.9997 117.344 45.1162 117.803 45.1154C118.272 45.1146 118.709 44.9965 119.114 44.7611C119.519 44.5257 119.844 44.1837 120.088 43.7353C120.343 43.2762 120.47 42.7426 120.469 42.1346ZM128.537 46.6801C127.705 46.6816 126.953 46.4963 126.28 46.1242C125.608 45.7414 125.079 45.209 124.693 44.527C124.308 43.8344 124.115 43.0347 124.113 42.1281C124.112 41.2321 124.307 40.437 124.701 39.743C125.094 39.0489 125.632 38.5146 126.314 38.1401C126.996 37.7655 127.758 37.5775 128.601 37.576C129.444 37.5744 130.207 37.7597 130.89 38.1318C131.573 38.5039 132.113 39.0363 132.509 39.7289C132.905 40.4216 133.104 41.2159 133.105 42.1119C133.107 43.0079 132.905 43.8029 132.501 44.497C132.097 45.191 131.544 45.7307 130.84 46.1159C130.148 46.4905 129.38 46.6786 128.537 46.6801ZM128.534 45.0961C129.004 45.0952 129.441 44.9825 129.846 44.7577C130.261 44.533 130.597 44.1964 130.852 43.7479C131.107 43.2995 131.234 42.7552 131.233 42.1152C131.232 41.4752 131.108 40.9368 130.862 40.4999C130.616 40.0523 130.29 39.7169 129.884 39.4937C129.479 39.2704 129.041 39.1592 128.572 39.16C128.102 39.1609 127.665 39.2737 127.26 39.4984C126.866 39.7231 126.552 40.0597 126.318 40.5081C126.084 40.9458 125.968 41.4847 125.969 42.1247C125.971 43.074 126.212 43.8096 126.693 44.3314C127.185 44.8425 127.798 45.0974 128.534 45.0961ZM134.3 42.1097C134.299 41.203 134.479 40.408 134.84 39.7247C135.212 39.0307 135.723 38.4965 136.373 38.122C137.023 37.7475 137.769 37.5595 138.612 37.5579C139.679 37.556 140.559 37.8104 141.253 38.3212C141.958 38.8212 142.434 39.5404 142.681 40.4786L140.713 40.4822C140.553 40.0451 140.296 39.7042 139.943 39.4595C139.591 39.2148 139.148 39.093 138.615 39.0939C137.868 39.0953 137.271 39.363 136.824 39.8972C136.388 40.4206 136.171 41.157 136.172 42.1063C136.174 43.0557 136.394 43.7966 136.832 44.3292C137.281 44.8617 137.879 45.1273 138.626 45.1259C139.682 45.124 140.38 44.6588 140.719 43.7302L142.687 43.7266C142.433 44.6231 141.954 45.3386 141.251 45.8732C140.548 46.3971 139.674 46.66 138.628 46.6619C137.786 46.6634 137.039 46.4781 136.387 46.106C135.736 45.7231 135.223 45.1907 134.849 44.5087C134.485 43.816 134.302 43.0164 134.3 42.1097ZM146.625 39.1755L146.634 44.0555C146.634 44.3862 146.709 44.626 146.859 44.7751C147.019 44.9135 147.286 44.9823 147.659 44.9817L148.779 44.9796L148.782 46.4996L147.342 46.5022C146.521 46.5037 145.891 46.3128 145.453 45.9296C145.015 45.5464 144.795 44.9228 144.794 44.0588L144.785 39.1788L143.745 39.1807L143.742 37.6927L144.782 37.6908L144.778 35.4988L146.618 35.4955L146.622 37.6875L148.766 37.6837L148.769 39.1716L146.625 39.1755ZM154.287 46.6337C153.455 46.6352 152.703 46.4499 152.03 46.0778C151.358 45.695 150.829 45.1626 150.443 44.4806C150.058 43.788 149.865 42.9883 149.863 42.0817C149.861 41.1857 150.057 40.3907 150.451 39.6966C150.844 39.0026 151.382 38.4683 152.064 38.0937C152.746 37.7192 153.508 37.5311 154.351 37.5296C155.194 37.5281 155.957 37.7134 156.64 38.0855C157.323 38.4576 157.863 38.9899 158.259 39.6826C158.655 40.3752 158.853 41.1695 158.855 42.0655C158.857 42.9615 158.655 43.7565 158.251 44.4506C157.847 45.1446 157.294 45.6843 156.59 46.0696C155.898 46.4442 155.13 46.6322 154.287 46.6337ZM154.284 45.0497C154.754 45.0489 155.191 44.9361 155.596 44.7114C156.011 44.4866 156.347 44.15 156.602 43.7016C156.857 43.2531 156.984 42.7089 156.983 42.0689C156.982 41.4289 156.858 40.8904 156.612 40.4535C156.366 40.006 156.04 39.6706 155.634 39.4473C155.229 39.224 154.791 39.1128 154.322 39.1136C153.852 39.1145 153.415 39.2273 153.01 39.452C152.616 39.6767 152.302 40.0133 152.068 40.4617C151.834 40.8995 151.718 41.4383 151.719 42.0783C151.721 43.0277 151.962 43.7632 152.443 44.285C152.935 44.7962 153.548 45.0511 154.284 45.0497ZM162.477 38.939C162.742 38.4905 163.094 38.1432 163.531 37.8971C163.978 37.6403 164.506 37.5113 165.114 37.5102L165.117 39.3982L164.653 39.399C163.939 39.4003 163.395 39.5826 163.022 39.946C162.66 40.3093 162.48 40.939 162.482 41.835L162.49 46.475L160.666 46.4782L160.65 37.6623L162.474 37.659L162.477 38.939Z" fill="#333548" fill-opacity="0.5"/>
<path d="M345.643 15.059C346.996 13.9686 348.056 13.076 348.823 12.3813C349.589 11.6759 350.233 10.9441 350.755 10.1858C351.287 9.41685 351.552 8.66437 351.551 7.92837C351.549 7.23504 351.378 6.69135 351.036 6.2973C350.704 5.89256 350.165 5.69086 349.419 5.69221C348.693 5.69351 348.128 5.92387 347.724 6.38326C347.33 6.83197 347.118 7.43502 347.087 8.19241L345.679 8.19495C345.72 7.0002 346.081 6.07689 346.762 5.42499C347.444 4.7731 348.323 4.44618 349.4 4.44424C350.499 4.44226 351.369 4.74469 352.01 5.35154C352.662 5.95837 352.989 6.79511 352.991 7.86178C352.992 8.74711 352.727 9.61159 352.195 10.4552C351.674 11.2882 351.078 12.0252 350.407 12.6664C349.736 13.297 348.879 14.0345 347.835 14.8791L353.339 14.8692L353.341 16.0852L345.645 16.099L345.643 15.059ZM355.014 10.3061C355.011 8.47148 355.307 7.04161 355.902 6.01653C356.498 4.98079 357.542 4.46158 359.036 4.45889C360.518 4.45622 361.559 4.97168 362.158 6.00527C362.758 7.02819 363.059 8.45698 363.062 10.2916C363.065 12.1583 362.769 13.6095 362.174 14.6453C361.578 15.681 360.539 16.2002 359.057 16.2029C357.563 16.2056 356.517 15.6901 355.918 14.6565C355.319 13.6229 355.017 12.1728 355.014 10.3061ZM361.622 10.2942C361.62 9.36624 361.555 8.58236 361.426 7.94259C361.307 7.29214 361.056 6.76992 360.671 6.37595C360.297 5.98195 359.753 5.7856 359.038 5.78689C358.313 5.78819 357.758 5.98652 357.375 6.38188C357.002 6.77722 356.753 7.30034 356.626 7.95123C356.51 8.59144 356.452 9.37555 356.454 10.3035C356.456 11.2635 356.516 12.0688 356.634 12.7192C356.764 13.3697 357.015 13.8919 357.389 14.2859C357.774 14.6798 358.329 14.8762 359.054 14.8749C359.769 14.8736 360.313 14.6753 360.685 14.2799C361.069 13.8846 361.318 13.3615 361.434 12.7106C361.561 12.0597 361.624 11.2542 361.622 10.2942ZM364.669 5.95275L364.667 4.62475L367.675 4.61933L367.696 16.1873L366.224 16.19L366.205 5.94998L364.669 5.95275ZM370.186 10.2788C370.183 8.44416 370.479 7.01429 371.074 5.98921C371.67 4.95347 372.714 4.43426 374.207 4.43157C375.69 4.4289 376.731 4.94436 377.33 5.97795C377.929 7.00087 378.231 8.42966 378.234 10.2643C378.237 12.131 377.941 13.5822 377.346 14.6179C376.75 15.6537 375.711 16.1729 374.229 16.1755C372.735 16.1782 371.689 15.6628 371.09 14.6292C370.491 13.5956 370.189 12.1455 370.186 10.2788ZM376.794 10.2669C376.792 9.33892 376.727 8.55504 376.598 7.91527C376.479 7.26482 376.228 6.7426 375.843 6.34863C375.469 5.95463 374.924 5.75828 374.21 5.75957C373.484 5.76087 372.93 5.9592 372.547 6.35456C372.174 6.7499 371.925 7.27302 371.798 7.92391C371.682 8.56412 371.624 9.34823 371.626 10.2762C371.628 11.2362 371.688 12.0415 371.806 12.6919C371.935 13.3423 372.187 13.8646 372.561 14.2585C372.946 14.6525 373.501 14.8489 374.226 14.8476C374.941 14.8463 375.484 14.648 375.857 14.2526C376.24 13.8573 376.49 13.3341 376.606 12.6833C376.733 12.0324 376.796 11.2269 376.794 10.2669ZM386.552 9.67335L386.554 10.9053L380.17 10.9168L380.168 9.68484L386.552 9.67335ZM388.878 14.9812C390.23 13.8907 391.29 12.9982 392.057 12.3034C392.824 11.5981 393.468 10.8662 393.989 10.108C394.521 9.339 394.786 8.58652 394.785 7.85052C394.784 7.15719 394.612 6.6135 394.27 6.21944C393.939 5.81471 393.4 5.61301 392.653 5.61435C391.928 5.61566 391.363 5.84601 390.958 6.30541C390.564 6.75412 390.352 7.35717 390.321 8.11456L388.913 8.11709C388.954 6.92235 389.315 5.99903 389.996 5.34714C390.678 4.69524 391.557 4.36832 392.635 4.36638C393.733 4.36441 394.603 4.66684 395.244 5.27369C395.896 5.88051 396.223 6.71726 396.225 7.78393C396.226 8.66926 395.961 9.53374 395.43 10.3774C394.908 11.2103 394.312 11.9474 393.641 12.5886C392.971 13.2191 392.113 13.9567 391.069 14.8012L396.573 14.7913L396.576 16.0073L388.88 16.0212L388.878 14.9812ZM398.248 10.2283C398.245 8.39362 398.541 6.96375 399.137 5.93868C399.732 4.90294 400.777 4.38372 402.27 4.38103C403.753 4.37837 404.793 4.89382 405.393 5.92741C405.992 6.95034 406.293 8.37913 406.296 10.2138C406.3 12.0805 406.004 13.5317 405.408 14.5674C404.813 15.6031 403.774 16.1223 402.291 16.125C400.798 16.1277 399.751 15.6123 399.152 14.5787C398.553 13.5451 398.252 12.095 398.248 10.2283ZM404.856 10.2164C404.855 9.28839 404.789 8.5045 404.66 7.86474C404.542 7.21428 404.29 6.69207 403.905 6.29809C403.531 5.9041 402.987 5.70775 402.272 5.70903C401.547 5.71034 400.993 5.90867 400.609 6.30403C400.237 6.69937 399.987 7.22248 399.86 7.87338C399.744 8.51359 399.687 9.29769 399.688 10.2257C399.69 11.1857 399.75 11.9909 399.869 12.6414C399.998 13.2918 400.25 13.814 400.624 14.208C401.008 14.602 401.563 14.7983 402.289 14.797C403.003 14.7957 403.547 14.5974 403.92 14.2021C404.303 13.8067 404.553 13.2836 404.669 12.6327C404.796 11.9818 404.858 11.1764 404.856 10.2164ZM407.903 5.87489L407.901 4.54689L410.909 4.54148L410.93 16.1095L409.458 16.1121L409.439 5.87213L407.903 5.87489ZM420.788 5.78769L415.172 5.7978L415.179 9.4458C415.424 9.10402 415.786 8.82604 416.265 8.61184C416.745 8.38698 417.262 8.27404 417.817 8.27305C418.702 8.27145 419.422 8.45682 419.978 8.82915C420.533 9.19082 420.929 9.66478 421.164 10.251C421.411 10.8266 421.534 11.4397 421.536 12.0904C421.537 12.8584 421.394 13.5466 421.107 14.1551C420.82 14.7636 420.379 15.2444 419.782 15.5975C419.196 15.9506 418.466 16.1279 417.591 16.1295C416.471 16.1315 415.564 15.8451 414.869 15.2704C414.175 14.6956 413.752 13.9284 413.601 12.9686L415.025 12.9661C415.165 13.5738 415.459 14.048 415.908 14.3885C416.356 14.729 416.922 14.8987 417.605 14.8974C418.447 14.8959 419.082 14.6441 419.507 14.142C419.933 13.6292 420.145 12.9569 420.144 12.1249C420.142 11.2929 419.928 10.6532 419.5 10.206C419.073 9.74812 418.443 9.51992 417.611 9.52142C417.046 9.52244 416.55 9.662 416.124 9.9401C415.708 10.2075 415.405 10.5761 415.214 11.0457L413.838 11.0482L413.826 4.52023L420.786 4.50769L420.788 5.78769Z" fill="#333548" fill-opacity="0.71"/>
</svg>
