<svg width="472" height="52" viewBox="0 0 472 52" fill="none" xmlns="http://www.w3.org/2000/svg">
<rect width="48" height="48" rx="6" fill="#F7F7FC"/>
<path d="M35 17V31C35 31.55 34.8043 32.021 34.413 32.413C34.0217 32.805 33.5507 33.0007 33 33H30C29.7167 33 29.4793 32.904 29.288 32.712C29.0967 32.52 29.0007 32.2827 29 32C29 31.7167 29.096 31.4793 29.288 31.288C29.48 31.0967 29.7173 31.0007 30 31H33V17H24V17.5C24 17.7833 23.904 18.021 23.712 18.213C23.52 18.405 23.2827 18.5007 23 18.5C22.7167 18.5 22.4793 18.404 22.288 18.212C22.0967 18.02 22.0007 17.7827 22 17.5V16.95C22 16.4167 22.1917 15.9583 22.575 15.575C22.9583 15.1917 23.4167 15 23.95 15H33C33.55 15 34.021 15.196 34.413 15.588C34.805 15.98 35.0007 16.4507 35 17ZM13 24.025C13 23.6917 13.075 23.3833 13.225 23.1C13.375 22.8167 13.5833 22.5833 13.85 22.4L18.85 18.825C19.0333 18.6917 19.221 18.5957 19.413 18.537C19.605 18.4783 19.8007 18.4493 20 18.45C20.2 18.45 20.396 18.4793 20.588 18.538C20.78 18.5967 20.9673 18.6923 21.15 18.825L26.15 22.4C26.4167 22.5833 26.625 22.8167 26.775 23.1C26.925 23.3833 27 23.6917 27 24.025V31C27 31.55 26.8043 32.021 26.413 32.413C26.0217 32.805 25.5507 33.0007 25 33H23C22.45 33 21.9793 32.8043 21.588 32.413C21.1967 32.0217 21.0007 31.5507 21 31V28H19V31C19 31.55 18.8043 32.021 18.413 32.413C18.0217 32.805 17.5507 33.0007 17 33H15C14.45 33 13.9793 32.8043 13.588 32.413C13.1967 32.0217 13.0007 31.5507 13 31V24.025ZM15 24V31H17V28C17 27.45 17.196 26.9793 17.588 26.588C17.98 26.1967 18.4507 26.0007 19 26H21C21.55 26 22.021 26.196 22.413 26.588C22.805 26.98 23.0007 27.4507 23 28V31H25V24L20 20.45L15 24ZM29.5 21H30.5C30.6333 21 30.75 20.95 30.85 20.85C30.95 20.75 31 20.6333 31 20.5V19.5C31 19.3667 30.95 19.25 30.85 19.15C30.75 19.05 30.6333 19 30.5 19H29.5C29.3667 19 29.25 19.05 29.15 19.15C29.05 19.25 29 19.3667 29 19.5V20.5C29 20.6333 29.05 20.75 29.15 20.85C29.25 20.95 29.3667 21 29.5 21ZM29.5 25H30.5C30.6333 25 30.75 24.95 30.85 24.85C30.95 24.75 31 24.6333 31 24.5V23.5C31 23.3667 30.95 23.25 30.85 23.15C30.75 23.05 30.6333 23 30.5 23H29.5C29.3667 23 29.25 23.05 29.15 23.15C29.05 23.25 29 23.3667 29 23.5V24.5C29 24.6333 29.05 24.75 29.15 24.85C29.25 24.95 29.3667 25 29.5 25ZM29.5 29H30.5C30.6333 29 30.75 28.95 30.85 28.85C30.95 28.75 31 28.6333 31 28.5V27.5C31 27.3667 30.95 27.25 30.85 27.15C30.75 27.05 30.6333 27 30.5 27H29.5C29.3667 27 29.25 27.05 29.15 27.15C29.05 27.25 29 27.3667 29 27.5V28.5C29 28.6333 29.05 28.75 29.15 28.85C29.25 28.95 29.3667 29 29.5 29Z" fill="#2E37A4"/>
<path d="M70.9208 5.28496L70.9408 16.4049L69.1168 16.4082L69.1031 8.79224L65.7248 16.4143L64.4608 16.4166L61.0391 8.80676L61.0528 16.4228L59.2288 16.426L59.2088 5.30605L61.1768 5.30251L65.0965 14.0155L68.9688 5.28848L70.9208 5.28496ZM74.2482 6.41497C73.9175 6.41557 73.64 6.30407 73.4156 6.08047C73.1912 5.85688 73.0787 5.57974 73.0781 5.24908C73.0775 4.91841 73.189 4.64088 73.4126 4.41647C73.6362 4.19207 73.9133 4.07957 74.244 4.07898C74.564 4.0784 74.8362 4.18991 75.0606 4.41351C75.285 4.6371 75.3975 4.91423 75.3981 5.2449C75.3987 5.57557 75.2872 5.8531 75.0636 6.0775C74.84 6.30191 74.5682 6.4144 74.2482 6.41497ZM75.1463 7.58136L75.1622 16.3973L73.3382 16.4006L73.3223 7.58464L75.1463 7.58136ZM76.9409 11.9461C76.9393 11.0608 77.1192 10.2765 77.4807 9.59316C77.8528 8.90982 78.3531 8.38092 78.9818 8.00645C79.6211 7.6213 80.3301 7.42802 81.1088 7.42662C81.6848 7.42558 82.2503 7.55257 82.8055 7.80757C83.3712 8.05188 83.8198 8.38174 84.1512 8.79714L84.1436 4.54115L85.9836 4.53784L86.0049 16.3778L84.1649 16.3811L84.1625 15.0531C83.8646 15.4803 83.4492 15.8331 82.9164 16.1114C82.3942 16.3897 81.7918 16.5294 81.1092 16.5306C80.3412 16.532 79.6368 16.3413 78.9961 15.9584C78.3661 15.5649 77.8638 15.0218 77.4892 14.3292C77.1253 13.6258 76.9425 12.8315 76.9409 11.9461ZM84.1569 11.9651C84.1558 11.3571 84.0269 10.8294 83.7701 10.3818C83.524 9.93428 83.198 9.59353 82.7922 9.35959C82.3865 9.12566 81.9489 9.00911 81.4796 9.00996C81.0103 9.0108 80.5732 9.12892 80.1683 9.36432C79.7633 9.58905 79.4333 9.92564 79.1781 10.3741C78.9335 10.8119 78.8118 11.3348 78.8129 11.9428C78.814 12.5508 78.9376 13.0839 79.1838 13.5421C79.4406 14.0003 79.7719 14.3517 80.1777 14.5963C80.5941 14.8302 81.0316 14.9468 81.4903 14.9459C81.9596 14.9451 82.3968 14.827 82.8017 14.5916C83.2066 14.3562 83.5313 14.0143 83.7758 13.5658C84.031 13.1067 84.158 12.5731 84.1569 11.9651ZM90.5154 9.04168L90.5242 13.9217C90.5248 14.2523 90.5999 14.4922 90.7495 14.6413C90.9098 14.7797 91.1766 14.8485 91.5499 14.8478L92.6699 14.8458L92.6726 16.3658L91.2326 16.3684C90.4113 16.3699 89.7816 16.179 89.3436 15.7958C88.9056 15.4126 88.6858 14.789 88.6842 13.925L88.6754 9.045L87.6354 9.04687L87.6328 7.55887L88.6728 7.557L88.6688 5.365L90.5088 5.36169L90.5128 7.55369L92.6568 7.54983L92.6594 9.03782L90.5154 9.04168ZM98.178 16.4999C97.346 16.5014 96.5937 16.3161 95.921 15.944C95.2483 15.5612 94.7194 15.0288 94.3341 14.3468C93.9489 13.6542 93.7554 12.8545 93.7538 11.9479C93.7522 11.0519 93.9481 10.2568 94.3415 9.5628C94.7349 8.86875 95.2726 8.33445 95.9546 7.95989C96.6366 7.58533 97.3989 7.39729 98.2416 7.39577C99.0843 7.39425 99.8473 7.57954 100.531 7.95165C101.214 8.32375 101.754 8.85611 102.149 9.54874C102.545 10.2414 102.744 11.0357 102.746 11.9317C102.747 12.8277 102.546 13.6227 102.142 14.3168C101.738 15.0108 101.184 15.5505 100.481 15.9358C99.7883 16.3103 99.0207 16.4984 98.178 16.4999ZM98.1752 14.9159C98.6445 14.9151 99.0816 14.8023 99.4865 14.5775C99.9021 14.3528 100.238 14.0162 100.493 13.5677C100.748 13.1193 100.875 12.575 100.874 11.935C100.873 11.295 100.749 10.7566 100.503 10.3197C100.257 9.87214 99.9308 9.53673 99.5251 9.31346C99.1193 9.09019 98.6818 8.97898 98.2125 8.97982C97.7431 8.98067 97.306 9.09346 96.9011 9.31819C96.5068 9.5429 96.1927 9.87946 95.9589 10.3279C95.725 10.7656 95.6086 11.3045 95.6098 11.9445C95.6115 12.8938 95.8528 13.6294 96.3338 14.1512C96.8254 14.6623 97.4392 14.9172 98.1752 14.9159ZM116.381 7.50711L113.661 16.328L111.741 16.3315L109.953 9.82268L108.189 16.3379L106.269 16.3413L103.501 7.5303L105.357 7.52696L107.21 14.6116L109.069 7.52027L110.973 7.51684L112.778 14.5696L114.589 7.51033L116.381 7.50711ZM122.192 7.35264C122.885 7.35139 123.504 7.49428 124.049 7.7813C124.604 8.0683 125.037 8.49419 125.347 9.05896C125.657 9.62374 125.813 10.3061 125.815 11.1061L125.824 16.3061L124.016 16.3094L124.007 11.3814C124.006 10.592 123.807 9.98974 123.412 9.57445C123.016 9.14849 122.477 8.93613 121.795 8.93736C121.112 8.93859 120.568 9.1529 120.164 9.5803C119.77 9.99701 119.574 10.6 119.575 11.3894L119.584 16.3174L117.76 16.3206L117.744 7.50465L119.568 7.50137L119.57 8.50936C119.868 8.14616 120.246 7.86281 120.704 7.65932C121.173 7.45581 121.669 7.35358 122.192 7.35264ZM143.999 5.15337L144.019 16.2734L142.195 16.2766L142.181 8.66065L138.803 16.2827L137.539 16.285L134.117 8.67517L134.131 16.2912L132.307 16.2944L132.287 5.17446L134.255 5.17091L138.174 13.8839L142.047 5.15688L143.999 5.15337ZM154.488 11.6305C154.488 11.9612 154.468 12.2599 154.425 12.5266L147.689 12.5387C147.744 13.2426 148.006 13.8075 148.477 14.2333C148.947 14.6591 149.523 14.8714 150.206 14.8702C151.187 14.8684 151.88 14.4565 152.283 13.6345L154.251 13.6309C153.986 14.4421 153.502 15.1096 152.799 15.6335C152.107 16.1468 151.243 16.4043 150.208 16.4062C149.366 16.4077 148.608 16.2224 147.935 15.8503C147.273 15.4675 146.75 14.9351 146.365 14.2531C145.99 13.5605 145.802 12.7608 145.8 11.8541C145.799 10.9475 145.978 10.1525 146.34 9.46916C146.712 8.77516 147.228 8.24089 147.889 7.86637C148.56 7.49182 149.328 7.30378 150.192 7.30222C151.024 7.30072 151.766 7.48072 152.417 7.84221C153.068 8.20371 153.576 8.71479 153.94 9.37547C154.304 10.0255 154.486 10.7772 154.488 11.6305ZM152.583 11.0579C152.571 10.3859 152.33 9.84771 151.86 9.44322C151.39 9.03873 150.808 8.83711 150.115 8.83836C149.485 8.83949 148.947 9.04313 148.5 9.44927C148.053 9.84474 147.787 10.3839 147.703 11.0667L152.583 11.0579ZM155.675 11.8044C155.674 10.919 155.853 10.1347 156.215 9.45138C156.587 8.76804 157.087 8.23914 157.716 7.86467C158.355 7.47952 159.064 7.28624 159.843 7.28484C160.419 7.2838 160.985 7.41079 161.54 7.66579C162.105 7.9101 162.554 8.23996 162.885 8.65536L162.878 4.39937L164.718 4.39606L164.739 16.236L162.899 16.2394L162.897 14.9114C162.599 15.3386 162.183 15.6913 161.651 15.9696C161.128 16.2479 160.526 16.3876 159.843 16.3889C159.075 16.3902 158.371 16.1995 157.73 15.8167C157.1 15.4231 156.598 14.88 156.223 14.1874C155.86 13.484 155.677 12.6897 155.675 11.8044ZM162.891 11.8234C162.89 11.2154 162.761 10.6876 162.504 10.2401C162.258 9.7925 161.932 9.45175 161.526 9.21781C161.121 8.98388 160.683 8.86733 160.214 8.86818C159.745 8.86902 159.307 8.98714 158.903 9.22254C158.498 9.44727 158.168 9.78386 157.912 10.2323C157.668 10.6701 157.546 11.193 157.547 11.801C157.548 12.409 157.672 12.9421 157.918 13.4003C158.175 13.8585 158.506 14.2099 158.912 14.4545C159.328 14.6884 159.766 14.805 160.225 14.8042C160.694 14.8033 161.131 14.6852 161.536 14.4498C161.941 14.2144 162.266 13.8725 162.51 13.424C162.765 12.9649 162.892 12.4314 162.891 11.8234ZM168.045 6.24607C167.714 6.24666 167.437 6.13516 167.212 5.91157C166.988 5.68797 166.875 5.41084 166.875 5.08017C166.874 4.74951 166.986 4.47197 167.209 4.24757C167.433 4.02317 167.71 3.91067 168.041 3.91007C168.361 3.9095 168.633 4.02101 168.857 4.2446C169.082 4.4682 169.194 4.74533 169.195 5.076C169.195 5.40666 169.084 5.6842 168.86 5.9086C168.637 6.133 168.365 6.24549 168.045 6.24607ZM168.943 7.41245L168.959 16.2284L167.135 16.2317L167.119 7.41574L168.943 7.41245ZM170.738 11.8092C170.736 10.9026 170.916 10.1076 171.277 9.42425C171.649 8.73025 172.161 8.19599 172.811 7.82149C173.46 7.44699 174.207 7.25898 175.049 7.25746C176.116 7.25554 176.997 7.50995 177.691 8.0207C178.396 8.52077 178.872 9.23991 179.119 10.1781L177.151 10.1817C176.99 9.74463 176.733 9.40376 176.381 9.15906C176.028 8.91436 175.586 8.79249 175.052 8.79345C174.306 8.7948 173.709 9.06254 173.262 9.59668C172.825 10.1201 172.608 10.8565 172.61 11.8059C172.611 12.7552 172.831 13.4961 173.27 14.0287C173.719 14.5612 174.316 14.8268 175.063 14.8254C176.119 14.8235 176.817 14.3583 177.157 13.4297L179.125 13.4261C178.87 14.3226 178.392 15.0381 177.688 15.5727C176.985 16.0967 176.111 16.3596 175.066 16.3614C174.223 16.363 173.476 16.1776 172.825 15.8055C172.174 15.4226 171.661 14.8902 171.286 14.2082C170.922 13.5156 170.739 12.7159 170.738 11.8092ZM180.331 11.76C180.33 10.8746 180.51 10.0903 180.871 9.40698C181.243 8.72364 181.744 8.19474 182.372 7.82027C183.012 7.43512 183.715 7.24185 184.483 7.24047C185.177 7.23922 185.779 7.3768 186.292 7.65321C186.815 7.91894 187.232 8.25419 187.542 8.65896L187.539 7.37897L189.379 7.37565L189.395 16.1916L187.555 16.195L187.553 14.883C187.244 15.2995 186.824 15.6469 186.291 15.9252C185.758 16.2035 185.15 16.3433 184.468 16.3445C183.71 16.3459 183.017 16.1551 182.387 15.7723C181.757 15.3787 181.254 14.8356 180.88 14.143C180.516 13.4396 180.333 12.6453 180.331 11.76ZM187.547 11.779C187.546 11.171 187.417 10.6432 187.161 10.1957C186.914 9.7481 186.588 9.40735 186.183 9.17341C185.777 8.93948 185.339 8.82293 184.87 8.82378C184.401 8.82462 183.964 8.94274 183.559 9.17814C183.154 9.40287 182.824 9.73946 182.569 10.1879C182.324 10.6257 182.202 11.1486 182.203 11.7566C182.204 12.3646 182.328 12.8977 182.574 13.3559C182.831 13.8141 183.162 14.1655 183.568 14.4101C183.985 14.644 184.422 14.7606 184.881 14.7598C185.35 14.7589 185.787 14.6408 186.192 14.4054C186.597 14.17 186.922 13.8281 187.166 13.3796C187.421 12.9205 187.548 12.387 187.547 11.779ZM193.594 4.34406L193.615 16.184L191.791 16.1873L191.77 4.34734L193.594 4.34406ZM199.548 10.5893C199.546 9.50135 199.795 8.5249 200.295 7.66C200.805 6.79508 201.492 6.12184 202.355 5.64028C203.229 5.14804 204.183 4.90099 205.218 4.89913C206.402 4.897 207.453 5.18844 208.371 5.77345C209.3 6.34778 209.974 7.1679 210.392 8.23382L208.2 8.23776C207.911 7.65162 207.51 7.215 206.997 6.92793C206.485 6.64085 205.893 6.49792 205.221 6.49913C204.485 6.50045 203.829 6.66697 203.254 6.99867C202.678 7.33037 202.226 7.80585 201.896 8.42512C201.577 9.04436 201.419 9.76464 201.42 10.586C201.422 11.4073 201.583 12.127 201.904 12.7451C202.236 13.3632 202.69 13.8424 203.267 14.1827C203.843 14.5123 204.499 14.6764 205.235 14.6751C205.907 14.6739 206.499 14.5288 207.011 14.2399C207.522 13.951 207.921 13.5129 208.208 12.9258L210.4 12.9218C209.986 13.9892 209.316 14.8118 208.389 15.3894C207.472 15.9671 206.422 16.257 205.238 16.2591C204.193 16.261 203.238 16.0227 202.373 15.5443C201.508 15.0552 200.819 14.3791 200.305 13.516C199.802 12.6529 199.55 11.6773 199.548 10.5893ZM214.344 4.30669L214.365 16.1467L212.541 16.15L212.52 4.30998L214.344 4.30669ZM217.67 6.15671C217.339 6.1573 217.062 6.0458 216.837 5.82221C216.613 5.59861 216.5 5.32148 216.5 4.99081C216.499 4.66015 216.611 4.38261 216.834 4.15821C217.058 3.93381 217.335 3.82131 217.666 3.82071C217.986 3.82013 218.258 3.93164 218.482 4.15524C218.707 4.37884 218.819 4.65597 218.82 4.98663C218.82 5.3173 218.709 5.59484 218.485 5.81924C218.262 6.04364 217.99 6.15613 217.67 6.15671ZM218.568 7.32309L218.584 16.1391L216.76 16.1424L216.744 7.32638L218.568 7.32309ZM225.41 7.16677C226.104 7.16552 226.723 7.30841 227.267 7.59543C227.822 7.88243 228.255 8.30832 228.565 8.87309C228.876 9.43787 229.032 10.1203 229.033 10.9203L229.043 16.1202L227.235 16.1235L227.226 11.1955C227.224 10.4062 227.026 9.80387 226.63 9.38858C226.235 8.96262 225.696 8.75026 225.013 8.75149C224.331 8.75272 223.787 8.96703 223.382 9.39443C222.988 9.81114 222.792 10.4142 222.794 11.2035L222.803 16.1315L220.979 16.1348L220.963 7.31878L222.787 7.3155L222.788 8.32349C223.086 7.96029 223.465 7.67694 223.923 7.47345C224.392 7.26994 224.888 7.16771 225.41 7.16677ZM232.279 6.1304C231.949 6.131 231.671 6.01949 231.447 5.7959C231.222 5.5723 231.11 5.29517 231.109 4.9645C231.108 4.63384 231.22 4.3563 231.444 4.1319C231.667 3.9075 231.944 3.795 232.275 3.7944C232.595 3.79383 232.867 3.90534 233.092 4.12893C233.316 4.35253 233.428 4.62966 233.429 4.96033C233.43 5.29099 233.318 5.56853 233.095 5.79293C232.871 6.01733 232.599 6.12982 232.279 6.1304ZM233.177 7.29678L233.193 16.1128L231.369 16.1161L231.353 7.30007L233.177 7.29678ZM234.972 11.6936C234.97 10.7869 235.15 9.9919 235.512 9.30858C235.884 8.61458 236.395 8.08033 237.045 7.70582C237.695 7.33132 238.441 7.14331 239.284 7.14179C240.35 7.13987 241.231 7.39428 241.925 7.90503C242.63 8.4051 243.106 9.12424 243.353 10.0625L241.385 10.066C241.224 9.62896 240.968 9.28809 240.615 9.04339C240.263 8.79869 239.82 8.67682 239.287 8.67779C238.54 8.67913 237.943 8.94687 237.496 9.48101C237.06 10.0045 236.842 10.7409 236.844 11.6902C236.846 12.6395 237.066 13.3805 237.504 13.913C237.953 14.4455 238.551 14.7111 239.297 14.7098C240.353 14.7079 241.051 14.2426 241.391 13.314L243.359 13.3105C243.104 14.2069 242.626 14.9224 241.923 15.457C241.22 15.981 240.345 16.2439 239.3 16.2458C238.457 16.2473 237.71 16.062 237.059 15.6898C236.408 15.307 235.895 14.7746 235.52 14.0926C235.156 13.3999 234.974 12.6002 234.972 11.6936Z" fill="#333548"/>
<path d="M62.893 46.7663C62.1463 46.7676 61.4741 46.6409 60.8763 46.3859C60.2785 46.1203 59.8085 45.7479 59.4663 45.2685C59.1241 44.7891 58.9524 44.2294 58.9513 43.5894L60.9033 43.5859C60.9468 44.0658 61.1342 44.4601 61.4654 44.7689C61.8073 45.0776 62.2822 45.2314 62.8902 45.2303C63.5196 45.2292 64.01 45.079 64.3614 44.7797C64.7129 44.4697 64.8882 44.0747 64.8873 43.5947C64.8866 43.2214 64.7741 42.9176 64.5497 42.6833C64.3359 42.449 64.0636 42.2682 63.7327 42.1408C63.4124 42.0134 62.9642 41.8755 62.3879 41.7272C61.6623 41.5365 61.0699 41.3456 60.6109 41.1544C60.1625 40.9525 59.778 40.6439 59.4572 40.2285C59.1365 39.8131 58.9755 39.2587 58.9742 38.5653C58.9731 37.9253 59.1321 37.3651 59.4512 36.8845C59.7703 36.4039 60.2177 36.0351 60.7932 35.7781C61.3688 35.521 62.0352 35.3918 62.7925 35.3905C63.8699 35.3885 64.7503 35.6589 65.434 36.2017C66.1283 36.7338 66.5136 37.4691 66.59 38.4076L64.574 38.4113C64.5412 38.006 64.3486 37.6597 63.9961 37.3723C63.6436 37.0849 63.1793 36.9418 62.6033 36.9428C62.0806 36.9437 61.6542 37.0778 61.324 37.3451C60.9939 37.6124 60.8292 37.9967 60.8301 38.498C60.8307 38.8393 60.9326 39.1218 61.1356 39.3455C61.3494 39.5584 61.6163 39.7286 61.9366 39.856C62.2568 39.9834 62.6944 40.1213 63.2493 40.2696C63.9857 40.471 64.5834 40.6726 65.0424 40.8744C65.5121 41.0762 65.9073 41.3902 66.2281 41.8163C66.5595 42.2317 66.7259 42.7914 66.7271 43.4954C66.7281 44.0607 66.5744 44.5943 66.266 45.0962C65.9682 45.5981 65.5263 46.0042 64.9402 46.3146C64.3647 46.6143 63.6823 46.7649 62.893 46.7663ZM76.9567 42.005C76.9573 42.3356 76.9365 42.6343 76.8943 42.9011L70.1583 42.9132C70.2129 43.6171 70.4753 44.182 70.9454 44.6078C71.4155 45.0336 71.9919 45.2459 72.6745 45.2447C73.6559 45.2429 74.3485 44.831 74.7523 44.0089L76.7203 44.0054C76.4551 44.8165 75.971 45.4841 75.2679 46.008C74.5755 46.5213 73.712 46.7788 72.6773 46.7807C71.8346 46.7822 71.077 46.5969 70.4043 46.2248C69.7423 45.842 69.2186 45.3096 68.8334 44.6276C68.4588 43.9349 68.2707 43.1353 68.2691 42.2286C68.2675 41.3219 68.4474 40.527 68.8088 39.8436C69.1809 39.1496 69.6973 38.6154 70.3579 38.2408C71.0292 37.8663 71.7969 37.6783 72.6609 37.6767C73.4929 37.6752 74.2346 37.8552 74.8859 38.2167C75.5372 38.5782 76.0448 39.0893 76.4086 39.75C76.7725 40.4 76.9552 41.1516 76.9567 42.005ZM75.0517 41.4324C75.0398 40.7604 74.7988 40.2222 74.3288 39.8177C73.8587 39.4132 73.277 39.2116 72.5837 39.2128C71.9543 39.214 71.416 39.4176 70.9688 39.8237C70.5215 40.2192 70.2558 40.7584 70.1717 41.4412L75.0517 41.4324ZM83.1919 37.6577C83.8852 37.6565 84.5041 37.7994 85.0487 38.0864C85.6038 38.3734 86.0366 38.7993 86.347 39.3641C86.6573 39.9288 86.8132 40.6112 86.8147 41.4112L86.824 46.6112L85.016 46.6145L85.0071 41.6865C85.0057 40.8971 84.8073 40.2948 84.4119 39.8795C84.0165 39.4536 83.4774 39.2412 82.7947 39.2425C82.1121 39.2437 81.5685 39.458 81.1639 39.8854C80.77 40.3021 80.5737 40.9051 80.5752 41.6945L80.584 46.6224L78.76 46.6257L78.7442 37.8097L80.5682 37.8065L80.57 38.8145C80.868 38.4513 81.2461 38.1679 81.7044 37.9644C82.1734 37.7609 82.6692 37.6587 83.1919 37.6577ZM90.0607 36.6214C89.73 36.622 89.4525 36.5105 89.2281 36.2869C89.0037 36.0633 88.8912 35.7861 88.8906 35.4555C88.89 35.1248 89.0015 34.8473 89.2251 34.6229C89.4487 34.3985 89.7258 34.286 90.0565 34.2854C90.3764 34.2848 90.6487 34.3963 90.8731 34.6199C91.0975 34.8435 91.21 35.1206 91.2106 35.4513C91.2111 35.782 91.0996 36.0595 90.8761 36.2839C90.6525 36.5083 90.3807 36.6208 90.0607 36.6214ZM90.9588 37.7877L90.9746 46.6037L89.1506 46.607L89.1348 37.791L90.9588 37.7877ZM97.1936 46.7365C96.3616 46.738 95.6093 46.5527 94.9366 46.1806C94.2639 45.7978 93.735 45.2654 93.3497 44.5835C92.9645 43.8908 92.7711 43.0912 92.7694 42.1845C92.7678 41.2885 92.9637 40.4935 93.3571 39.7994C93.7506 39.1054 94.2883 38.5711 94.9703 38.1965C95.6522 37.822 96.4146 37.6339 97.2572 37.6324C98.0999 37.6309 98.8629 37.8162 99.5462 38.1883C100.23 38.5604 100.769 39.0927 101.165 39.7854C101.561 40.478 101.76 41.2723 101.761 42.1683C101.763 43.0643 101.562 43.8593 101.158 44.5534C100.754 45.2475 100.2 45.7871 99.4966 46.1724C98.804 46.547 98.0363 46.735 97.1936 46.7365ZM97.1908 45.1525C97.6601 45.1517 98.0972 45.0389 98.5022 44.8142C98.9178 44.5894 99.2532 44.2528 99.5084 43.8044C99.7635 43.3559 99.8906 42.8117 99.8894 42.1717C99.8883 41.5317 99.7646 40.9932 99.5185 40.5563C99.2724 40.1088 98.9464 39.7734 98.5407 39.5501C98.135 39.3268 97.6974 39.2156 97.2281 39.2165C96.7588 39.2173 96.3216 39.3301 95.9167 39.5548C95.5224 39.7795 95.2084 40.1161 94.9745 40.5645C94.7406 41.0023 94.6243 41.5412 94.6254 42.1812C94.6271 43.1305 94.8685 43.8661 95.3494 44.3879C95.841 44.899 96.4548 45.1539 97.1908 45.1525ZM105.383 39.0418C105.649 38.5933 106 38.246 106.437 37.9999C106.885 37.7431 107.412 37.6141 108.02 37.613L108.024 39.501L107.56 39.5019C106.845 39.5031 106.301 39.6855 105.929 40.0488C105.567 40.4121 105.387 41.0418 105.388 41.9378L105.396 46.5778L103.572 46.581L103.557 37.7651L105.381 37.7618L105.383 39.0418ZM113.253 42.1156C113.252 41.2303 113.432 40.4459 113.793 39.7626C114.165 39.0793 114.666 38.5504 115.294 38.1759C115.934 37.7908 116.643 37.5975 117.421 37.5961C117.997 37.5951 118.563 37.722 119.118 37.977C119.684 38.2214 120.132 38.5512 120.464 38.9666L120.456 34.7106L122.296 34.7073L122.317 46.5473L120.477 46.5506L120.475 45.2226C120.177 45.6498 119.762 46.0026 119.229 46.2809C118.707 46.5591 118.104 46.6989 117.422 46.7001C116.654 46.7015 115.949 46.5108 115.309 46.1279C114.679 45.7344 114.176 45.1913 113.802 44.4986C113.438 43.7953 113.255 43.0009 113.253 42.1156ZM120.469 42.1346C120.468 41.5266 120.339 40.9988 120.083 40.5513C119.836 40.1037 119.51 39.763 119.105 39.5291C118.699 39.2951 118.261 39.1786 117.792 39.1794C117.323 39.1803 116.886 39.2984 116.481 39.5338C116.076 39.7585 115.746 40.0951 115.491 40.5436C115.246 40.9814 115.124 41.5042 115.125 42.1122C115.126 42.7202 115.25 43.2533 115.496 43.7116C115.753 44.1698 116.084 44.5212 116.49 44.7658C116.907 44.9997 117.344 45.1162 117.803 45.1154C118.272 45.1146 118.709 44.9965 119.114 44.7611C119.519 44.5257 119.844 44.1837 120.088 43.7353C120.343 43.2762 120.47 42.7426 120.469 42.1346ZM128.537 46.6801C127.705 46.6816 126.953 46.4963 126.28 46.1242C125.608 45.7414 125.079 45.209 124.693 44.527C124.308 43.8344 124.115 43.0347 124.113 42.1281C124.112 41.2321 124.307 40.437 124.701 39.743C125.094 39.0489 125.632 38.5146 126.314 38.1401C126.996 37.7655 127.758 37.5775 128.601 37.576C129.444 37.5744 130.207 37.7597 130.89 38.1318C131.573 38.5039 132.113 39.0363 132.509 39.7289C132.905 40.4216 133.104 41.2159 133.105 42.1119C133.107 43.0079 132.905 43.8029 132.501 44.497C132.097 45.191 131.544 45.7307 130.84 46.1159C130.148 46.4905 129.38 46.6786 128.537 46.6801ZM128.534 45.0961C129.004 45.0952 129.441 44.9825 129.846 44.7577C130.261 44.533 130.597 44.1964 130.852 43.7479C131.107 43.2995 131.234 42.7552 131.233 42.1152C131.232 41.4752 131.108 40.9368 130.862 40.4999C130.616 40.0523 130.29 39.7169 129.884 39.4937C129.479 39.2704 129.041 39.1592 128.572 39.16C128.102 39.1609 127.665 39.2737 127.26 39.4984C126.866 39.7231 126.552 40.0597 126.318 40.5081C126.084 40.9458 125.968 41.4847 125.969 42.1247C125.971 43.074 126.212 43.8096 126.693 44.3314C127.185 44.8425 127.798 45.0974 128.534 45.0961ZM134.3 42.1097C134.299 41.203 134.479 40.408 134.84 39.7247C135.212 39.0307 135.723 38.4965 136.373 38.122C137.023 37.7475 137.769 37.5595 138.612 37.5579C139.679 37.556 140.559 37.8104 141.253 38.3212C141.958 38.8212 142.434 39.5404 142.681 40.4786L140.713 40.4822C140.553 40.0451 140.296 39.7042 139.943 39.4595C139.591 39.2148 139.148 39.093 138.615 39.0939C137.868 39.0953 137.271 39.363 136.824 39.8972C136.388 40.4206 136.171 41.157 136.172 42.1063C136.174 43.0557 136.394 43.7966 136.832 44.3292C137.281 44.8617 137.879 45.1273 138.626 45.1259C139.682 45.124 140.38 44.6588 140.719 43.7302L142.687 43.7266C142.433 44.6231 141.954 45.3386 141.251 45.8732C140.548 46.3971 139.674 46.66 138.628 46.6619C137.786 46.6634 137.039 46.4781 136.387 46.106C135.736 45.7231 135.223 45.1907 134.849 44.5087C134.485 43.816 134.302 43.0164 134.3 42.1097ZM146.625 39.1755L146.634 44.0555C146.634 44.3862 146.709 44.626 146.859 44.7751C147.019 44.9135 147.286 44.9823 147.659 44.9817L148.779 44.9796L148.782 46.4996L147.342 46.5022C146.521 46.5037 145.891 46.3128 145.453 45.9296C145.015 45.5464 144.795 44.9228 144.794 44.0588L144.785 39.1788L143.745 39.1807L143.742 37.6927L144.782 37.6908L144.778 35.4988L146.618 35.4955L146.622 37.6875L148.766 37.6837L148.769 39.1716L146.625 39.1755ZM154.287 46.6337C153.455 46.6352 152.703 46.4499 152.03 46.0778C151.358 45.695 150.829 45.1626 150.443 44.4806C150.058 43.788 149.865 42.9883 149.863 42.0817C149.861 41.1857 150.057 40.3907 150.451 39.6966C150.844 39.0026 151.382 38.4683 152.064 38.0937C152.746 37.7192 153.508 37.5311 154.351 37.5296C155.194 37.5281 155.957 37.7134 156.64 38.0855C157.323 38.4576 157.863 38.9899 158.259 39.6826C158.655 40.3752 158.853 41.1695 158.855 42.0655C158.857 42.9615 158.655 43.7565 158.251 44.4506C157.847 45.1446 157.294 45.6843 156.59 46.0696C155.898 46.4442 155.13 46.6322 154.287 46.6337ZM154.284 45.0497C154.754 45.0489 155.191 44.9361 155.596 44.7114C156.011 44.4866 156.347 44.15 156.602 43.7016C156.857 43.2531 156.984 42.7089 156.983 42.0689C156.982 41.4289 156.858 40.8904 156.612 40.4535C156.366 40.006 156.04 39.6706 155.634 39.4473C155.229 39.224 154.791 39.1128 154.322 39.1136C153.852 39.1145 153.415 39.2273 153.01 39.452C152.616 39.6767 152.302 40.0133 152.068 40.4617C151.834 40.8995 151.718 41.4383 151.719 42.0783C151.721 43.0277 151.962 43.7632 152.443 44.285C152.935 44.7962 153.548 45.0511 154.284 45.0497ZM162.477 38.939C162.742 38.4905 163.094 38.1432 163.531 37.8971C163.978 37.6403 164.506 37.5113 165.114 37.5102L165.117 39.3982L164.653 39.399C163.939 39.4003 163.395 39.5826 163.022 39.946C162.66 40.3093 162.48 40.939 162.482 41.835L162.49 46.475L160.666 46.4782L160.65 37.6623L162.474 37.659L162.477 38.939Z" fill="#333548" fill-opacity="0.5"/>
<path d="M345.643 15.0585C346.996 13.9681 348.056 13.0755 348.823 12.3808C349.589 11.6754 350.233 10.9436 350.755 10.1853C351.287 9.41636 351.552 8.66388 351.551 7.92789C351.549 7.23455 351.378 6.69086 351.036 6.29681C350.704 5.89207 350.165 5.69038 349.419 5.69172C348.693 5.69303 348.128 5.92338 347.724 6.38277C347.33 6.83148 347.118 7.43453 347.087 8.19192L345.679 8.19446C345.72 6.99972 346.081 6.0764 346.762 5.4245C347.444 4.77261 348.323 4.44569 349.4 4.44375C350.499 4.44177 351.369 4.74421 352.01 5.35105C352.662 5.95788 352.989 6.79463 352.991 7.86129C352.992 8.74662 352.727 9.6111 352.195 10.4547C351.674 11.2877 351.078 12.0247 350.407 12.666C349.736 13.2965 348.879 14.034 347.835 14.8786L353.339 14.8687L353.341 16.0847L345.645 16.0985L345.643 15.0585ZM355.014 10.3057C355.011 8.47099 355.307 7.04112 355.902 6.01605C356.498 4.9803 357.542 4.46109 359.036 4.4584C360.518 4.45573 361.559 4.97119 362.158 6.00478C362.758 7.0277 363.059 8.4565 363.062 10.2912C363.065 12.1578 362.769 13.609 362.174 14.6448C361.578 15.6805 360.539 16.1997 359.057 16.2024C357.563 16.2051 356.517 15.6896 355.918 14.656C355.319 13.6224 355.017 12.1723 355.014 10.3057ZM361.622 10.2938C361.62 9.36575 361.555 8.58187 361.426 7.9421C361.307 7.29165 361.056 6.76943 360.671 6.37546C360.297 5.98147 359.753 5.78511 359.038 5.7864C358.313 5.7877 357.758 5.98604 357.375 6.38139C357.002 6.77673 356.753 7.29985 356.626 7.95075C356.51 8.59096 356.452 9.37506 356.454 10.3031C356.456 11.2631 356.516 12.0683 356.634 12.7187C356.764 13.3692 357.015 13.8914 357.389 14.2854C357.774 14.6794 358.329 14.8757 359.054 14.8744C359.769 14.8731 360.313 14.6748 360.685 14.2794C361.069 13.8841 361.318 13.361 361.434 12.7101C361.561 12.0592 361.624 11.2538 361.622 10.2938ZM364.669 5.95226L364.667 4.62426L367.675 4.61884L367.696 16.1868L366.224 16.1895L366.205 5.94949L364.669 5.95226ZM376.629 7.35473C376.392 6.17115 375.66 5.58047 374.433 5.58267C373.484 5.58438 372.775 5.95366 372.307 6.6905C371.839 7.41668 371.612 8.61709 371.626 10.2917C371.87 9.73663 372.275 9.3039 372.84 8.99355C373.415 8.67251 374.055 8.51136 374.759 8.51009C375.857 8.50812 376.733 8.84787 377.385 9.52937C378.047 10.2108 378.38 11.1542 378.382 12.3596C378.383 13.0849 378.24 13.7358 377.953 14.3124C377.677 14.8888 377.251 15.3483 376.676 15.6907C376.111 16.033 375.423 16.2049 374.613 16.2064C373.514 16.2083 372.655 15.9646 372.035 15.475C371.416 14.9855 370.983 14.3089 370.736 13.4453C370.489 12.5818 370.364 11.5153 370.362 10.246C370.355 6.33135 371.717 4.37157 374.447 4.36665C375.493 4.36477 376.314 4.64595 376.913 5.21021C377.511 5.77447 377.864 6.4885 377.973 7.3523L376.629 7.35473ZM374.457 9.74264C373.998 9.74347 373.566 9.84024 373.161 10.033C372.756 10.215 372.426 10.4983 372.171 10.8828C371.926 11.2565 371.805 11.7154 371.805 12.2594C371.807 13.0701 372.043 13.731 372.513 14.2421C372.983 14.7426 373.656 14.9921 374.53 14.9905C375.277 14.9892 375.869 14.7588 376.305 14.2993C376.752 13.8292 376.975 13.1994 376.974 12.4101C376.972 11.5781 376.758 10.9278 376.33 10.4593C375.903 9.98004 375.278 9.74116 374.457 9.74264ZM386.661 9.67266L386.663 10.9047L380.279 10.9162L380.277 9.68416L386.661 9.67266ZM396.847 8.24632C396.849 9.17432 396.53 9.94822 395.891 10.568C395.263 11.1772 394.298 11.4829 392.997 11.4853L390.853 11.4891L390.861 16.1451L389.405 16.1477L389.385 4.99575L392.985 4.98927C394.244 4.987 395.199 5.28928 395.851 5.89611C396.513 6.50292 396.845 7.28632 396.847 8.24632ZM392.995 10.2853C393.805 10.2838 394.402 10.1067 394.786 9.75403C395.169 9.40134 395.36 8.89966 395.359 8.249C395.357 6.873 394.566 6.18642 392.987 6.18926L390.843 6.19313L390.851 10.2891L392.995 10.2853ZM404.543 16.1205L401.879 11.5653L400.119 11.5684L400.127 16.1284L398.671 16.131L398.651 4.97906L402.251 4.97258C403.093 4.97106 403.803 5.11379 404.38 5.40075C404.967 5.68769 405.405 6.07624 405.694 6.56639C405.983 7.05653 406.128 7.61627 406.129 8.2456C406.13 9.0136 405.907 9.69134 405.46 10.2788C405.024 10.8663 404.363 11.2568 403.478 11.4504L406.287 16.1173L404.543 16.1205ZM400.117 10.4004L402.261 10.3966C403.05 10.3952 403.642 10.2021 404.036 9.81738C404.429 9.422 404.626 8.89898 404.625 8.24831C404.624 7.58698 404.425 7.07534 404.03 6.71338C403.645 6.35141 403.053 6.17114 402.253 6.17258L400.109 6.17644L400.117 10.4004ZM409.843 6.14291L409.85 9.87091L413.914 9.86359L413.916 11.0636L409.852 11.0709L409.859 14.9109L414.403 14.9027L414.405 16.1027L408.405 16.1135L408.385 4.94554L414.385 4.93473L414.387 6.13473L409.843 6.14291ZM420.145 16.2044C419.409 16.2057 418.747 16.0789 418.16 15.824C417.583 15.5583 417.129 15.1965 416.798 14.7384C416.466 14.2697 416.295 13.7313 416.283 13.1233L417.835 13.1205C417.889 13.6431 418.103 14.0854 418.477 14.4474C418.862 14.7987 419.417 14.9737 420.142 14.9724C420.836 14.9711 421.379 14.7995 421.773 14.4574C422.178 14.1047 422.38 13.6563 422.379 13.1123C422.378 12.6857 422.26 12.3392 422.025 12.073C421.79 11.8067 421.496 11.6046 421.144 11.4666C420.792 11.3285 420.317 11.1801 419.719 11.0211C418.983 10.8305 418.391 10.6395 417.942 10.4483C417.505 10.2571 417.125 9.95914 416.805 9.55438C416.494 9.13894 416.339 8.58455 416.338 7.89122C416.336 7.28322 416.49 6.74428 416.799 6.27439C417.107 5.8045 417.538 5.44105 418.093 5.18405C418.658 4.92704 419.303 4.79788 420.028 4.79657C421.073 4.79469 421.927 5.05448 422.589 5.57596C423.262 6.09741 423.642 6.79006 423.729 7.65391L422.129 7.65679C422.075 7.23022 421.85 6.85729 421.455 6.538C421.06 6.20805 420.537 6.04366 419.886 6.04483C419.278 6.04592 418.783 6.20681 418.399 6.52751C418.016 6.83753 417.824 7.27521 417.825 7.84054C417.826 8.24587 417.939 8.57634 418.163 8.83193C418.398 9.08751 418.681 9.28434 419.012 9.42241C419.354 9.54979 419.829 9.69827 420.437 9.86784C421.174 10.0692 421.766 10.2708 422.214 10.4726C422.663 10.6638 423.047 10.9671 423.368 11.3826C423.689 11.7873 423.85 12.3417 423.851 13.0457C423.852 13.5897 423.709 14.102 423.422 14.5825C423.134 15.063 422.709 15.4531 422.144 15.7528C421.579 16.0525 420.913 16.203 420.145 16.2044ZM427.437 6.11123L427.444 9.83922L431.508 9.83191L431.51 11.0319L427.446 11.0392L427.453 14.8792L431.997 14.871L431.999 16.071L425.999 16.0818L425.979 4.91385L431.979 4.90305L431.981 6.10305L427.437 6.11123ZM442.97 16.0513L441.514 16.0539L435.642 7.18446L435.658 16.0644L434.202 16.0671L434.182 4.89908L435.638 4.89646L441.51 13.7499L441.494 4.88592L442.95 4.88329L442.97 16.0513ZM452.296 4.88246L452.298 6.06646L449.258 6.07194L449.276 16.0399L447.82 16.0425L447.802 6.07456L444.746 6.08006L444.744 4.89606L452.296 4.88246Z" fill="#333548" fill-opacity="0.71"/>
</svg>
