<svg width="135" height="42" viewBox="0 0 135 42" fill="none" xmlns="http://www.w3.org/2000/svg">
<rect width="135" height="42" rx="18" fill="#F7F7FC"/>
<path d="M16.772 27.112C15.7373 27.112 14.7827 26.872 13.908 26.392C13.044 25.9013 12.356 25.224 11.844 24.36C11.3427 23.4853 11.092 22.504 11.092 21.416C11.092 20.328 11.3427 19.352 11.844 18.488C12.356 17.624 13.044 16.952 13.908 16.472C14.7827 15.9813 15.7373 15.736 16.772 15.736C17.8173 15.736 18.772 15.9813 19.636 16.472C20.5107 16.952 21.1987 17.624 21.7 18.488C22.2013 19.352 22.452 20.328 22.452 21.416C22.452 22.504 22.2013 23.4853 21.7 24.36C21.1987 25.224 20.5107 25.9013 19.636 26.392C18.772 26.872 17.8173 27.112 16.772 27.112ZM16.772 25.528C17.508 25.528 18.164 25.3627 18.74 25.032C19.316 24.6907 19.764 24.2107 20.084 23.592C20.4147 22.9627 20.58 22.2373 20.58 21.416C20.58 20.5947 20.4147 19.8747 20.084 19.256C19.764 18.6373 19.316 18.1627 18.74 17.832C18.164 17.5013 17.508 17.336 16.772 17.336C16.036 17.336 15.38 17.5013 14.804 17.832C14.228 18.1627 13.7747 18.6373 13.444 19.256C13.124 19.8747 12.964 20.5947 12.964 21.416C12.964 22.2373 13.124 22.9627 13.444 23.592C13.7747 24.2107 14.228 24.6907 14.804 25.032C15.38 25.3627 16.036 25.528 16.772 25.528ZM27.6549 25.368L30.1509 18.184H32.0869L28.7269 27H26.5509L23.2069 18.184H25.1589L27.6549 25.368ZM32.8576 22.552C32.8576 21.6667 33.039 20.8827 33.4016 20.2C33.775 19.5173 34.2763 18.9893 34.9056 18.616C35.5456 18.232 36.2496 18.04 37.0176 18.04C37.711 18.04 38.3136 18.1787 38.8256 18.456C39.3483 18.7227 39.7643 19.0587 40.0736 19.464V18.184H41.9136V27H40.0736V25.688C39.7643 26.104 39.343 26.4507 38.8096 26.728C38.2763 27.0053 37.6683 27.144 36.9856 27.144C36.2283 27.144 35.535 26.952 34.9056 26.568C34.2763 26.1733 33.775 25.6293 33.4016 24.936C33.039 24.232 32.8576 23.4373 32.8576 22.552ZM40.0736 22.584C40.0736 21.976 39.9456 21.448 39.6896 21C39.4443 20.552 39.119 20.2107 38.7136 19.976C38.3083 19.7413 37.871 19.624 37.4016 19.624C36.9323 19.624 36.495 19.7413 36.0896 19.976C35.6843 20.2 35.3536 20.536 35.0976 20.984C34.8523 21.4213 34.7296 21.944 34.7296 22.552C34.7296 23.16 34.8523 23.6933 35.0976 24.152C35.3536 24.6107 35.6843 24.9627 36.0896 25.208C36.5056 25.4427 36.943 25.56 37.4016 25.56C37.871 25.56 38.3083 25.4427 38.7136 25.208C39.119 24.9733 39.4443 24.632 39.6896 24.184C39.9456 23.7253 40.0736 23.192 40.0736 22.584ZM46.1334 19.464C46.4 19.016 46.752 18.6693 47.1894 18.424C47.6374 18.168 48.1654 18.04 48.7734 18.04V19.928H48.3094C47.5947 19.928 47.0507 20.1093 46.6774 20.472C46.3147 20.8347 46.1334 21.464 46.1334 22.36V27H44.3094V18.184H46.1334V19.464ZM51.378 17.016C51.0473 17.016 50.77 16.904 50.546 16.68C50.322 16.456 50.21 16.1787 50.21 15.848C50.21 15.5173 50.322 15.24 50.546 15.016C50.77 14.792 51.0473 14.68 51.378 14.68C51.698 14.68 51.97 14.792 52.194 15.016C52.418 15.24 52.53 15.5173 52.53 15.848C52.53 16.1787 52.418 16.456 52.194 16.68C51.97 16.904 51.698 17.016 51.378 17.016ZM52.274 18.184V27H50.45V18.184H52.274ZM54.0608 22.552C54.0608 21.6667 54.2421 20.8827 54.6048 20.2C54.9781 19.5173 55.4794 18.9893 56.1088 18.616C56.7488 18.232 57.4528 18.04 58.2208 18.04C58.9141 18.04 59.5168 18.1787 60.0288 18.456C60.5514 18.7227 60.9674 19.0587 61.2768 19.464V18.184H63.1168V27H61.2768V25.688C60.9674 26.104 60.5461 26.4507 60.0128 26.728C59.4794 27.0053 58.8714 27.144 58.1888 27.144C57.4314 27.144 56.7381 26.952 56.1088 26.568C55.4794 26.1733 54.9781 25.6293 54.6048 24.936C54.2421 24.232 54.0608 23.4373 54.0608 22.552ZM61.2768 22.584C61.2768 21.976 61.1488 21.448 60.8928 21C60.6474 20.552 60.3221 20.2107 59.9168 19.976C59.5114 19.7413 59.0741 19.624 58.6048 19.624C58.1354 19.624 57.6981 19.7413 57.2928 19.976C56.8874 20.2 56.5568 20.536 56.3008 20.984C56.0554 21.4213 55.9328 21.944 55.9328 22.552C55.9328 23.16 56.0554 23.6933 56.3008 24.152C56.5568 24.6107 56.8874 24.9627 57.2928 25.208C57.7088 25.4427 58.1461 25.56 58.6048 25.56C59.0741 25.56 59.5114 25.4427 59.9168 25.208C60.3221 24.9733 60.6474 24.632 60.8928 24.184C61.1488 23.7253 61.2768 23.192 61.2768 22.584ZM69.9605 18.04C70.6538 18.04 71.2725 18.184 71.8165 18.472C72.3712 18.76 72.8032 19.1867 73.1125 19.752C73.4218 20.3173 73.5765 21 73.5765 21.8V27H71.7685V22.072C71.7685 21.2827 71.5712 20.68 71.1765 20.264C70.7818 19.8373 70.2432 19.624 69.5605 19.624C68.8778 19.624 68.3338 19.8373 67.9285 20.264C67.5338 20.68 67.3365 21.2827 67.3365 22.072V27H65.5125V18.184H67.3365V19.192C67.6352 18.8293 68.0138 18.5467 68.4725 18.344C68.9418 18.1413 69.4378 18.04 69.9605 18.04ZM79.4514 21.416C79.4514 20.328 79.702 19.352 80.2034 18.488C80.7154 17.624 81.4034 16.952 82.2674 16.472C83.142 15.9813 84.0967 15.736 85.1314 15.736C86.3154 15.736 87.366 16.0293 88.2834 16.616C89.2114 17.192 89.8834 18.0133 90.2994 19.08H88.1074C87.8194 18.4933 87.4194 18.056 86.9074 17.768C86.3954 17.48 85.8034 17.336 85.1314 17.336C84.3954 17.336 83.7394 17.5013 83.1634 17.832C82.5874 18.1627 82.134 18.6373 81.8034 19.256C81.4834 19.8747 81.3234 20.5947 81.3234 21.416C81.3234 22.2373 81.4834 22.9573 81.8034 23.576C82.134 24.1947 82.5874 24.6747 83.1634 25.016C83.7394 25.3467 84.3954 25.512 85.1314 25.512C85.8034 25.512 86.3954 25.368 86.9074 25.08C87.4194 24.792 87.8194 24.3547 88.1074 23.768H90.2994C89.8834 24.8347 89.2114 25.656 88.2834 26.232C87.366 26.808 86.3154 27.096 85.1314 27.096C84.086 27.096 83.1314 26.856 82.2674 26.376C81.4034 25.8853 80.7154 25.208 80.2034 24.344C79.702 23.48 79.4514 22.504 79.4514 21.416ZM100.37 18.184L94.9624 31.144H93.0744L94.8664 26.856L91.3944 18.184H93.4264L95.9064 24.904L98.4824 18.184H100.37ZM104.947 27.144C104.254 27.144 103.63 27.0213 103.075 26.776C102.531 26.52 102.099 26.1787 101.779 25.752C101.459 25.3147 101.288 24.8293 101.267 24.296H103.155C103.187 24.6693 103.363 24.984 103.683 25.24C104.014 25.4853 104.424 25.608 104.915 25.608C105.427 25.608 105.822 25.512 106.099 25.32C106.387 25.1173 106.531 24.8613 106.531 24.552C106.531 24.2213 106.371 23.976 106.051 23.816C105.742 23.656 105.246 23.48 104.563 23.288C103.902 23.1067 103.363 22.9307 102.947 22.76C102.531 22.5893 102.168 22.328 101.859 21.976C101.56 21.624 101.411 21.16 101.411 20.584C101.411 20.1147 101.55 19.688 101.827 19.304C102.104 18.9093 102.499 18.6 103.011 18.376C103.534 18.152 104.131 18.04 104.803 18.04C105.806 18.04 106.611 18.296 107.219 18.808C107.838 19.3093 108.168 19.9973 108.211 20.872H106.387C106.355 20.4773 106.195 20.1627 105.907 19.928C105.619 19.6933 105.23 19.576 104.739 19.576C104.259 19.576 103.891 19.6667 103.635 19.848C103.379 20.0293 103.251 20.2693 103.251 20.568C103.251 20.8027 103.336 21 103.507 21.16C103.678 21.32 103.886 21.448 104.131 21.544C104.376 21.6293 104.739 21.7413 105.219 21.88C105.859 22.0507 106.382 22.2267 106.787 22.408C107.203 22.5787 107.56 22.8347 107.859 23.176C108.158 23.5173 108.312 23.9707 108.323 24.536C108.323 25.0373 108.184 25.4853 107.907 25.88C107.63 26.2747 107.235 26.584 106.723 26.808C106.222 27.032 105.63 27.144 104.947 27.144ZM112.422 19.672V24.552C112.422 24.8827 112.496 25.1227 112.646 25.272C112.806 25.4107 113.072 25.48 113.446 25.48H114.566V27H113.126C112.304 27 111.675 26.808 111.238 26.424C110.8 26.04 110.582 25.416 110.582 24.552V19.672H109.542V18.184H110.582V15.992H112.422V18.184H114.566V19.672H112.422ZM119.447 27.144C118.754 27.144 118.13 27.0213 117.575 26.776C117.031 26.52 116.599 26.1787 116.279 25.752C115.959 25.3147 115.788 24.8293 115.767 24.296H117.655C117.687 24.6693 117.863 24.984 118.183 25.24C118.514 25.4853 118.924 25.608 119.415 25.608C119.927 25.608 120.322 25.512 120.599 25.32C120.887 25.1173 121.031 24.8613 121.031 24.552C121.031 24.2213 120.871 23.976 120.551 23.816C120.242 23.656 119.746 23.48 119.063 23.288C118.402 23.1067 117.863 22.9307 117.447 22.76C117.031 22.5893 116.668 22.328 116.359 21.976C116.06 21.624 115.911 21.16 115.911 20.584C115.911 20.1147 116.05 19.688 116.327 19.304C116.604 18.9093 116.999 18.6 117.511 18.376C118.034 18.152 118.631 18.04 119.303 18.04C120.306 18.04 121.111 18.296 121.719 18.808C122.338 19.3093 122.668 19.9973 122.711 20.872H120.887C120.855 20.4773 120.695 20.1627 120.407 19.928C120.119 19.6933 119.73 19.576 119.239 19.576C118.759 19.576 118.391 19.6667 118.135 19.848C117.879 20.0293 117.751 20.2693 117.751 20.568C117.751 20.8027 117.836 21 118.007 21.16C118.178 21.32 118.386 21.448 118.631 21.544C118.876 21.6293 119.239 21.7413 119.719 21.88C120.359 22.0507 120.882 22.2267 121.287 22.408C121.703 22.5787 122.06 22.8347 122.359 23.176C122.658 23.5173 122.812 23.9707 122.823 24.536C122.823 25.0373 122.684 25.4853 122.407 25.88C122.13 26.2747 121.735 26.584 121.223 26.808C120.722 27.032 120.13 27.144 119.447 27.144Z" fill="#3A643B"/>
</svg>
