<svg width="135" height="42" viewBox="0 0 135 42" fill="none" xmlns="http://www.w3.org/2000/svg">
<rect width="135" height="42" rx="18" fill="#F7F7FC"/>
<path d="M33.476 19.192C33.476 19.7573 33.3427 20.2907 33.076 20.792C32.8093 21.2933 32.3827 21.704 31.796 22.024C31.2093 22.3333 30.4573 22.488 29.54 22.488H27.524V27H25.7V15.88H29.54C30.3933 15.88 31.1133 16.0293 31.7 16.328C32.2973 16.616 32.74 17.0107 33.028 17.512C33.3267 18.0133 33.476 18.5733 33.476 19.192ZM29.54 21C30.2333 21 30.7507 20.8453 31.092 20.536C31.4333 20.216 31.604 19.768 31.604 19.192C31.604 17.976 30.916 17.368 29.54 17.368H27.524V21H29.54ZM43.2956 22.376C43.2956 22.7067 43.2743 23.0053 43.2316 23.272H36.4956C36.549 23.976 36.8103 24.5413 37.2796 24.968C37.749 25.3947 38.325 25.608 39.0076 25.608C39.989 25.608 40.6823 25.1973 41.0876 24.376H43.0556C42.789 25.1867 42.3036 25.8533 41.5996 26.376C40.9063 26.888 40.0423 27.144 39.0076 27.144C38.165 27.144 37.4076 26.9573 36.7356 26.584C36.0743 26.2 35.5516 25.6667 35.1676 24.984C34.7943 24.2907 34.6076 23.4907 34.6076 22.584C34.6076 21.6773 34.789 20.8827 35.1516 20.2C35.525 19.5067 36.0423 18.9733 36.7036 18.6C37.3756 18.2267 38.1436 18.04 39.0076 18.04C39.8396 18.04 40.581 18.2213 41.2316 18.584C41.8823 18.9467 42.389 19.4587 42.7516 20.12C43.1143 20.7707 43.2956 21.5227 43.2956 22.376ZM41.3916 21.8C41.381 21.128 41.141 20.5893 40.6716 20.184C40.2023 19.7787 39.621 19.576 38.9276 19.576C38.2983 19.576 37.7596 19.7787 37.3116 20.184C36.8636 20.5787 36.597 21.1173 36.5116 21.8H41.3916ZM46.9146 15.16V27H45.0906V15.16H46.9146ZM52.7174 25.368L55.2134 18.184H57.1494L53.7894 27H51.6134L48.2694 18.184H50.2214L52.7174 25.368ZM59.4561 17.016C59.1255 17.016 58.8481 16.904 58.6241 16.68C58.4001 16.456 58.2881 16.1787 58.2881 15.848C58.2881 15.5173 58.4001 15.24 58.6241 15.016C58.8481 14.792 59.1255 14.68 59.4561 14.68C59.7761 14.68 60.0481 14.792 60.2721 15.016C60.4961 15.24 60.6081 15.5173 60.6081 15.848C60.6081 16.1787 60.4961 16.456 60.2721 16.68C60.0481 16.904 59.7761 17.016 59.4561 17.016ZM60.3521 18.184V27H58.5281V18.184H60.3521ZM62.1389 22.584C62.1389 21.6773 62.3202 20.8827 62.6829 20.2C63.0562 19.5067 63.5682 18.9733 64.2189 18.6C64.8695 18.2267 65.6162 18.04 66.4589 18.04C67.5255 18.04 68.4055 18.296 69.0989 18.808C69.8029 19.3093 70.2775 20.0293 70.5229 20.968H68.5549C68.3949 20.5307 68.1389 20.1893 67.7869 19.944C67.4349 19.6987 66.9922 19.576 66.4589 19.576C65.7122 19.576 65.1149 19.8427 64.6669 20.376C64.2295 20.8987 64.0109 21.6347 64.0109 22.584C64.0109 23.5333 64.2295 24.2747 64.6669 24.808C65.1149 25.3413 65.7122 25.608 66.4589 25.608C67.5149 25.608 68.2135 25.144 68.5549 24.216H70.5229C70.2669 25.112 69.7869 25.8267 69.0829 26.36C68.3789 26.8827 67.5042 27.144 66.4589 27.144C65.6162 27.144 64.8695 26.9573 64.2189 26.584C63.5682 26.2 63.0562 25.6667 62.6829 24.984C62.3202 24.2907 62.1389 23.4907 62.1389 22.584ZM84.2729 19.192C84.2729 19.7573 84.1395 20.2907 83.8729 20.792C83.6062 21.2933 83.1795 21.704 82.5929 22.024C82.0062 22.3333 81.2542 22.488 80.3369 22.488H78.3209V27H76.4969V15.88H80.3369C81.1902 15.88 81.9102 16.0293 82.4969 16.328C83.0942 16.616 83.5369 17.0107 83.8249 17.512C84.1235 18.0133 84.2729 18.5733 84.2729 19.192ZM80.3369 21C81.0302 21 81.5475 20.8453 81.8889 20.536C82.2302 20.216 82.4009 19.768 82.4009 19.192C82.4009 17.976 81.7129 17.368 80.3369 17.368H78.3209V21H80.3369ZM85.4045 22.552C85.4045 21.6667 85.5858 20.8827 85.9485 20.2C86.3218 19.5173 86.8232 18.9893 87.4525 18.616C88.0925 18.232 88.7965 18.04 89.5645 18.04C90.2578 18.04 90.8605 18.1787 91.3725 18.456C91.8952 18.7227 92.3112 19.0587 92.6205 19.464V18.184H94.4605V27H92.6205V25.688C92.3112 26.104 91.8898 26.4507 91.3565 26.728C90.8232 27.0053 90.2152 27.144 89.5325 27.144C88.7752 27.144 88.0818 26.952 87.4525 26.568C86.8232 26.1733 86.3218 25.6293 85.9485 24.936C85.5858 24.232 85.4045 23.4373 85.4045 22.552ZM92.6205 22.584C92.6205 21.976 92.4925 21.448 92.2365 21C91.9912 20.552 91.6658 20.2107 91.2605 19.976C90.8552 19.7413 90.4178 19.624 89.9485 19.624C89.4792 19.624 89.0418 19.7413 88.6365 19.976C88.2312 20.2 87.9005 20.536 87.6445 20.984C87.3992 21.4213 87.2765 21.944 87.2765 22.552C87.2765 23.16 87.3992 23.6933 87.6445 24.152C87.9005 24.6107 88.2312 24.9627 88.6365 25.208C89.0525 25.4427 89.4898 25.56 89.9485 25.56C90.4178 25.56 90.8552 25.4427 91.2605 25.208C91.6658 24.9733 91.9912 24.632 92.2365 24.184C92.4925 23.7253 92.6205 23.192 92.6205 22.584ZM97.7843 17.016C97.4536 17.016 97.1763 16.904 96.9523 16.68C96.7283 16.456 96.6163 16.1787 96.6163 15.848C96.6163 15.5173 96.7283 15.24 96.9523 15.016C97.1763 14.792 97.4536 14.68 97.7843 14.68C98.1043 14.68 98.3763 14.792 98.6003 15.016C98.8243 15.24 98.9363 15.5173 98.9363 15.848C98.9363 16.1787 98.8243 16.456 98.6003 16.68C98.3763 16.904 98.1043 17.016 97.7843 17.016ZM98.6803 18.184V27H96.8563V18.184H98.6803ZM105.523 18.04C106.216 18.04 106.835 18.184 107.379 18.472C107.934 18.76 108.366 19.1867 108.675 19.752C108.984 20.3173 109.139 21 109.139 21.8V27H107.331V22.072C107.331 21.2827 107.134 20.68 106.739 20.264C106.344 19.8373 105.806 19.624 105.123 19.624C104.44 19.624 103.896 19.8373 103.491 20.264C103.096 20.68 102.899 21.2827 102.899 22.072V27H101.075V18.184H102.899V19.192C103.198 18.8293 103.576 18.5467 104.035 18.344C104.504 18.1413 105 18.04 105.523 18.04Z" fill="#3A643B"/>
</svg>
