<svg width="135" height="42" viewBox="0 0 135 42" fill="none" xmlns="http://www.w3.org/2000/svg">
<rect width="135" height="42" rx="18" fill="#F7F7FC"/>
<path d="M19.976 19.192C19.976 19.7573 19.8427 20.2907 19.576 20.792C19.3093 21.2933 18.8827 21.704 18.296 22.024C17.7093 22.3333 16.9573 22.488 16.04 22.488H14.024V27H12.2V15.88H16.04C16.8933 15.88 17.6133 16.0293 18.2 16.328C18.7973 16.616 19.24 17.0107 19.528 17.512C19.8267 18.0133 19.976 18.5733 19.976 19.192ZM16.04 21C16.7333 21 17.2507 20.8453 17.592 20.536C17.9333 20.216 18.104 19.768 18.104 19.192C18.104 17.976 17.416 17.368 16.04 17.368H14.024V21H16.04ZM29.7956 22.376C29.7956 22.7067 29.7743 23.0053 29.7316 23.272H22.9956C23.049 23.976 23.3103 24.5413 23.7796 24.968C24.249 25.3947 24.825 25.608 25.5076 25.608C26.489 25.608 27.1823 25.1973 27.5876 24.376H29.5556C29.289 25.1867 28.8036 25.8533 28.0996 26.376C27.4063 26.888 26.5423 27.144 25.5076 27.144C24.665 27.144 23.9076 26.9573 23.2356 26.584C22.5743 26.2 22.0516 25.6667 21.6676 24.984C21.2943 24.2907 21.1076 23.4907 21.1076 22.584C21.1076 21.6773 21.289 20.8827 21.6516 20.2C22.025 19.5067 22.5423 18.9733 23.2036 18.6C23.8756 18.2267 24.6436 18.04 25.5076 18.04C26.3396 18.04 27.081 18.2213 27.7316 18.584C28.3823 18.9467 28.889 19.4587 29.2516 20.12C29.6143 20.7707 29.7956 21.5227 29.7956 22.376ZM27.8916 21.8C27.881 21.128 27.641 20.5893 27.1716 20.184C26.7023 19.7787 26.121 19.576 25.4276 19.576C24.7983 19.576 24.2596 19.7787 23.8116 20.184C23.3636 20.5787 23.097 21.1173 23.0116 21.8H27.8916ZM33.4146 19.464C33.6813 19.016 34.0333 18.6693 34.4706 18.424C34.9186 18.168 35.4466 18.04 36.0546 18.04V19.928H35.5906C34.876 19.928 34.332 20.1093 33.9586 20.472C33.596 20.8347 33.4146 21.464 33.4146 22.36V27H31.5906V18.184H33.4146V19.464ZM38.6593 17.016C38.3286 17.016 38.0513 16.904 37.8273 16.68C37.6033 16.456 37.4913 16.1787 37.4913 15.848C37.4913 15.5173 37.6033 15.24 37.8273 15.016C38.0513 14.792 38.3286 14.68 38.6593 14.68C38.9793 14.68 39.2513 14.792 39.4753 15.016C39.6993 15.24 39.8113 15.5173 39.8113 15.848C39.8113 16.1787 39.6993 16.456 39.4753 16.68C39.2513 16.904 38.9793 17.016 38.6593 17.016ZM39.5553 18.184V27H37.7313V18.184H39.5553ZM45.774 27.144C44.942 27.144 44.19 26.9573 43.518 26.584C42.846 26.2 42.318 25.6667 41.934 24.984C41.55 24.2907 41.358 23.4907 41.358 22.584C41.358 21.688 41.5553 20.8933 41.95 20.2C42.3447 19.5067 42.8833 18.9733 43.566 18.6C44.2487 18.2267 45.0113 18.04 45.854 18.04C46.6967 18.04 47.4593 18.2267 48.142 18.6C48.8247 18.9733 49.3633 19.5067 49.758 20.2C50.1527 20.8933 50.35 21.688 50.35 22.584C50.35 23.48 50.1473 24.2747 49.742 24.968C49.3367 25.6613 48.782 26.2 48.078 26.584C47.3847 26.9573 46.6167 27.144 45.774 27.144ZM45.774 25.56C46.2433 25.56 46.6807 25.448 47.086 25.224C47.502 25 47.838 24.664 48.094 24.216C48.35 23.768 48.478 23.224 48.478 22.584C48.478 21.944 48.3553 21.4053 48.11 20.968C47.8647 20.52 47.5393 20.184 47.134 19.96C46.7287 19.736 46.2913 19.624 45.822 19.624C45.3527 19.624 44.9153 19.736 44.51 19.96C44.1153 20.184 43.8007 20.52 43.566 20.968C43.3313 21.4053 43.214 21.944 43.214 22.584C43.214 23.5333 43.454 24.2693 43.934 24.792C44.4247 25.304 45.038 25.56 45.774 25.56ZM51.5451 22.552C51.5451 21.6667 51.7265 20.8827 52.0891 20.2C52.4625 19.5173 52.9638 18.9893 53.5931 18.616C54.2331 18.232 54.9425 18.04 55.7211 18.04C56.2971 18.04 56.8625 18.168 57.4171 18.424C57.9825 18.6693 58.4305 19 58.7611 19.416V15.16H60.6011V27H58.7611V25.672C58.4625 26.0987 58.0465 26.4507 57.5131 26.728C56.9905 27.0053 56.3878 27.144 55.7051 27.144C54.9371 27.144 54.2331 26.952 53.5931 26.568C52.9638 26.1733 52.4625 25.6293 52.0891 24.936C51.7265 24.232 51.5451 23.4373 51.5451 22.552ZM58.7611 22.584C58.7611 21.976 58.6331 21.448 58.3771 21C58.1318 20.552 57.8065 20.2107 57.4011 19.976C56.9958 19.7413 56.5585 19.624 56.0891 19.624C55.6198 19.624 55.1825 19.7413 54.7771 19.976C54.3718 20.2 54.0411 20.536 53.7851 20.984C53.5398 21.4213 53.4171 21.944 53.4171 22.552C53.4171 23.16 53.5398 23.6933 53.7851 24.152C54.0411 24.6107 54.3718 24.9627 54.7771 25.208C55.1931 25.4427 55.6305 25.56 56.0891 25.56C56.5585 25.56 56.9958 25.4427 57.4011 25.208C57.8065 24.9733 58.1318 24.632 58.3771 24.184C58.6331 23.7253 58.7611 23.192 58.7611 22.584ZM70.7851 15.88C71.9691 15.88 73.0038 16.1093 73.8891 16.568C74.7851 17.016 75.4731 17.6667 75.9531 18.52C76.4438 19.3627 76.6891 20.3493 76.6891 21.48C76.6891 22.6107 76.4438 23.592 75.9531 24.424C75.4731 25.256 74.7851 25.896 73.8891 26.344C73.0038 26.7813 71.9691 27 70.7851 27H67.1531V15.88H70.7851ZM70.7851 25.512C72.0865 25.512 73.0838 25.16 73.7771 24.456C74.4705 23.752 74.8171 22.76 74.8171 21.48C74.8171 20.1893 74.4705 19.1813 73.7771 18.456C73.0838 17.7307 72.0865 17.368 70.7851 17.368H68.9771V25.512H70.7851ZM82.3209 27.144C81.4889 27.144 80.7369 26.9573 80.0649 26.584C79.3929 26.2 78.8649 25.6667 78.4809 24.984C78.0969 24.2907 77.9049 23.4907 77.9049 22.584C77.9049 21.688 78.1022 20.8933 78.4969 20.2C78.8915 19.5067 79.4302 18.9733 80.1129 18.6C80.7955 18.2267 81.5582 18.04 82.4009 18.04C83.2435 18.04 84.0062 18.2267 84.6889 18.6C85.3715 18.9733 85.9102 19.5067 86.3049 20.2C86.6995 20.8933 86.8969 21.688 86.8969 22.584C86.8969 23.48 86.6942 24.2747 86.2889 24.968C85.8835 25.6613 85.3289 26.2 84.6249 26.584C83.9315 26.9573 83.1635 27.144 82.3209 27.144ZM82.3209 25.56C82.7902 25.56 83.2275 25.448 83.6329 25.224C84.0489 25 84.3849 24.664 84.6409 24.216C84.8969 23.768 85.0249 23.224 85.0249 22.584C85.0249 21.944 84.9022 21.4053 84.6569 20.968C84.4115 20.52 84.0862 20.184 83.6809 19.96C83.2755 19.736 82.8382 19.624 82.3689 19.624C81.8995 19.624 81.4622 19.736 81.0569 19.96C80.6622 20.184 80.3475 20.52 80.1129 20.968C79.8782 21.4053 79.7609 21.944 79.7609 22.584C79.7609 23.5333 80.0009 24.2693 80.4809 24.792C80.9715 25.304 81.5849 25.56 82.3209 25.56ZM96.684 18.184V27H94.86V25.96C94.572 26.3227 94.1933 26.6107 93.724 26.824C93.2653 27.0267 92.7747 27.128 92.252 27.128C91.5587 27.128 90.9347 26.984 90.38 26.696C89.836 26.408 89.404 25.9813 89.084 25.416C88.7747 24.8507 88.62 24.168 88.62 23.368V18.184H90.428V23.096C90.428 23.8853 90.6253 24.4933 91.02 24.92C91.4147 25.336 91.9533 25.544 92.636 25.544C93.3187 25.544 93.8573 25.336 94.252 24.92C94.6573 24.4933 94.86 23.8853 94.86 23.096V18.184H96.684ZM100.915 19.496C101.224 19.0693 101.645 18.7227 102.179 18.456C102.723 18.1787 103.325 18.04 103.987 18.04C104.765 18.04 105.469 18.2267 106.099 18.6C106.728 18.9733 107.224 19.5067 107.587 20.2C107.949 20.8827 108.131 21.6667 108.131 22.552C108.131 23.4373 107.949 24.232 107.587 24.936C107.224 25.6293 106.723 26.1733 106.083 26.568C105.453 26.952 104.755 27.144 103.987 27.144C103.304 27.144 102.696 27.0107 102.163 26.744C101.64 26.4773 101.224 26.136 100.915 25.72V27H99.0906V15.16H100.915V19.496ZM106.275 22.552C106.275 21.944 106.147 21.4213 105.891 20.984C105.645 20.536 105.315 20.2 104.899 19.976C104.493 19.7413 104.056 19.624 103.587 19.624C103.128 19.624 102.691 19.7413 102.275 19.976C101.869 20.2107 101.539 20.552 101.283 21C101.037 21.448 100.915 21.976 100.915 22.584C100.915 23.192 101.037 23.7253 101.283 24.184C101.539 24.632 101.869 24.9733 102.275 25.208C102.691 25.4427 103.128 25.56 103.587 25.56C104.056 25.56 104.493 25.4427 104.899 25.208C105.315 24.9627 105.645 24.6107 105.891 24.152C106.147 23.6933 106.275 23.16 106.275 22.552ZM112.062 19.672V24.552C112.062 24.8827 112.137 25.1227 112.286 25.272C112.446 25.4107 112.713 25.48 113.086 25.48H114.206V27H112.766C111.945 27 111.316 26.808 110.878 26.424C110.441 26.04 110.222 25.416 110.222 24.552V19.672H109.182V18.184H110.222V15.992H112.062V18.184H114.206V19.672H112.062ZM119.088 27.144C118.394 27.144 117.77 27.0213 117.216 26.776C116.672 26.52 116.24 26.1787 115.92 25.752C115.6 25.3147 115.429 24.8293 115.408 24.296H117.296C117.328 24.6693 117.504 24.984 117.824 25.24C118.154 25.4853 118.565 25.608 119.056 25.608C119.568 25.608 119.962 25.512 120.24 25.32C120.528 25.1173 120.672 24.8613 120.672 24.552C120.672 24.2213 120.512 23.976 120.192 23.816C119.882 23.656 119.386 23.48 118.704 23.288C118.042 23.1067 117.504 22.9307 117.088 22.76C116.672 22.5893 116.309 22.328 116 21.976C115.701 21.624 115.552 21.16 115.552 20.584C115.552 20.1147 115.69 19.688 115.968 19.304C116.245 18.9093 116.64 18.6 117.152 18.376C117.674 18.152 118.272 18.04 118.944 18.04C119.946 18.04 120.752 18.296 121.36 18.808C121.978 19.3093 122.309 19.9973 122.352 20.872H120.528C120.496 20.4773 120.336 20.1627 120.048 19.928C119.76 19.6933 119.37 19.576 118.88 19.576C118.4 19.576 118.032 19.6667 117.776 19.848C117.52 20.0293 117.392 20.2693 117.392 20.568C117.392 20.8027 117.477 21 117.648 21.16C117.818 21.32 118.026 21.448 118.272 21.544C118.517 21.6293 118.88 21.7413 119.36 21.88C120 22.0507 120.522 22.2267 120.928 22.408C121.344 22.5787 121.701 22.8347 122 23.176C122.298 23.5173 122.453 23.9707 122.464 24.536C122.464 25.0373 122.325 25.4853 122.048 25.88C121.77 26.2747 121.376 26.584 120.864 26.808C120.362 27.032 119.77 27.144 119.088 27.144Z" fill="#3A643B"/>
</svg>
