<svg width="113" height="42" viewBox="0 0 113 42" fill="none" xmlns="http://www.w3.org/2000/svg">
<rect width="113" height="42" rx="18" fill="#F7F7FC"/>
<path d="M21.976 19.192C21.976 19.7573 21.8427 20.2907 21.576 20.792C21.3093 21.2933 20.8827 21.704 20.296 22.024C19.7093 22.3333 18.9573 22.488 18.04 22.488H16.024V27H14.2V15.88H18.04C18.8933 15.88 19.6133 16.0293 20.2 16.328C20.7973 16.616 21.24 17.0107 21.528 17.512C21.8267 18.0133 21.976 18.5733 21.976 19.192ZM18.04 21C18.7333 21 19.2507 20.8453 19.592 20.536C19.9333 20.216 20.104 19.768 20.104 19.192C20.104 17.976 19.416 17.368 18.04 17.368H16.024V21H18.04ZM25.5396 19.464C25.8063 19.016 26.1583 18.6693 26.5956 18.424C27.0436 18.168 27.5716 18.04 28.1796 18.04V19.928H27.7156C27.001 19.928 26.457 20.1093 26.0836 20.472C25.721 20.8347 25.5396 21.464 25.5396 22.36V27H23.7156V18.184H25.5396V19.464ZM37.9363 22.376C37.9363 22.7067 37.9149 23.0053 37.8723 23.272H31.1363C31.1896 23.976 31.4509 24.5413 31.9203 24.968C32.3896 25.3947 32.9656 25.608 33.6483 25.608C34.6296 25.608 35.3229 25.1973 35.7283 24.376H37.6962C37.4296 25.1867 36.9443 25.8533 36.2403 26.376C35.5469 26.888 34.6829 27.144 33.6483 27.144C32.8056 27.144 32.0483 26.9573 31.3763 26.584C30.7149 26.2 30.1923 25.6667 29.8083 24.984C29.4349 24.2907 29.2483 23.4907 29.2483 22.584C29.2483 21.6773 29.4296 20.8827 29.7923 20.2C30.1656 19.5067 30.6829 18.9733 31.3443 18.6C32.0163 18.2267 32.7843 18.04 33.6483 18.04C34.4803 18.04 35.2216 18.2213 35.8723 18.584C36.5229 18.9467 37.0296 19.4587 37.3923 20.12C37.7549 20.7707 37.9363 21.5227 37.9363 22.376ZM36.0323 21.8C36.0216 21.128 35.7816 20.5893 35.3123 20.184C34.8429 19.7787 34.2616 19.576 33.5683 19.576C32.9389 19.576 32.4003 19.7787 31.9523 20.184C31.5043 20.5787 31.2376 21.1173 31.1523 21.8H36.0323ZM43.2833 18.04C43.9659 18.04 44.5686 18.1787 45.0913 18.456C45.6246 18.7227 46.0406 19.0587 46.3393 19.464V18.184H48.1793V27.144C48.1793 27.9547 48.0086 28.6747 47.6673 29.304C47.3259 29.944 46.8299 30.4453 46.1793 30.808C45.5393 31.1707 44.7713 31.352 43.8753 31.352C42.6806 31.352 41.6886 31.0693 40.8993 30.504C40.1099 29.9493 39.6619 29.192 39.5553 28.232H41.3633C41.5019 28.6907 41.7953 29.0587 42.2433 29.336C42.7019 29.624 43.2459 29.768 43.8753 29.768C44.6113 29.768 45.2033 29.544 45.6513 29.096C46.1099 28.648 46.3393 27.9973 46.3393 27.144V25.672C46.0299 26.088 45.6086 26.44 45.0753 26.728C44.5526 27.0053 43.9553 27.144 43.2833 27.144C42.5153 27.144 41.8113 26.952 41.1713 26.568C40.5419 26.1733 40.0406 25.6293 39.6673 24.936C39.3046 24.232 39.1233 23.4373 39.1233 22.552C39.1233 21.6667 39.3046 20.8827 39.6673 20.2C40.0406 19.5173 40.5419 18.9893 41.1713 18.616C41.8113 18.232 42.5153 18.04 43.2833 18.04ZM46.3393 22.584C46.3393 21.976 46.2113 21.448 45.9553 21C45.7099 20.552 45.3846 20.2107 44.9793 19.976C44.5739 19.7413 44.1366 19.624 43.6673 19.624C43.1979 19.624 42.7606 19.7413 42.3553 19.976C41.9499 20.2 41.6193 20.536 41.3633 20.984C41.1179 21.4213 40.9953 21.944 40.9953 22.552C40.9953 23.16 41.1179 23.6933 41.3633 24.152C41.6193 24.6107 41.9499 24.9627 42.3553 25.208C42.7713 25.4427 43.2086 25.56 43.6673 25.56C44.1366 25.56 44.5739 25.4427 44.9793 25.208C45.3846 24.9733 45.7099 24.632 45.9553 24.184C46.2113 23.7253 46.3393 23.192 46.3393 22.584ZM55.023 18.04C55.7163 18.04 56.335 18.184 56.879 18.472C57.4337 18.76 57.8657 19.1867 58.175 19.752C58.4843 20.3173 58.639 21 58.639 21.8V27H56.831V22.072C56.831 21.2827 56.6337 20.68 56.239 20.264C55.8443 19.8373 55.3057 19.624 54.623 19.624C53.9403 19.624 53.3963 19.8373 52.991 20.264C52.5963 20.68 52.399 21.2827 52.399 22.072V27H50.575V18.184H52.399V19.192C52.6977 18.8293 53.0763 18.5467 53.535 18.344C54.0043 18.1413 54.5003 18.04 55.023 18.04ZM60.3576 22.552C60.3576 21.6667 60.539 20.8827 60.9016 20.2C61.275 19.5173 61.7763 18.9893 62.4056 18.616C63.0456 18.232 63.7496 18.04 64.5176 18.04C65.211 18.04 65.8136 18.1787 66.3256 18.456C66.8483 18.7227 67.2643 19.0587 67.5736 19.464V18.184H69.4136V27H67.5736V25.688C67.2643 26.104 66.843 26.4507 66.3096 26.728C65.7763 27.0053 65.1683 27.144 64.4856 27.144C63.7283 27.144 63.035 26.952 62.4056 26.568C61.7763 26.1733 61.275 25.6293 60.9016 24.936C60.539 24.232 60.3576 23.4373 60.3576 22.552ZM67.5736 22.584C67.5736 21.976 67.4456 21.448 67.1896 21C66.9443 20.552 66.619 20.2107 66.2136 19.976C65.8083 19.7413 65.371 19.624 64.9016 19.624C64.4323 19.624 63.995 19.7413 63.5896 19.976C63.1843 20.2 62.8536 20.536 62.5976 20.984C62.3523 21.4213 62.2296 21.944 62.2296 22.552C62.2296 23.16 62.3523 23.6933 62.5976 24.152C62.8536 24.6107 63.1843 24.9627 63.5896 25.208C64.0056 25.4427 64.443 25.56 64.9016 25.56C65.371 25.56 65.8083 25.4427 66.2136 25.208C66.619 24.9733 66.9443 24.632 67.1896 24.184C67.4456 23.7253 67.5736 23.192 67.5736 22.584ZM76.2574 18.04C76.9507 18.04 77.5694 18.184 78.1134 18.472C78.668 18.76 79.1 19.1867 79.4094 19.752C79.7187 20.3173 79.8734 21 79.8734 21.8V27H78.0654V22.072C78.0654 21.2827 77.868 20.68 77.4734 20.264C77.0787 19.8373 76.54 19.624 75.8574 19.624C75.1747 19.624 74.6307 19.8373 74.2254 20.264C73.8307 20.68 73.6334 21.2827 73.6334 22.072V27H71.8094V18.184H73.6334V19.192C73.932 18.8293 74.3107 18.5467 74.7694 18.344C75.2387 18.1413 75.7347 18.04 76.2574 18.04ZM81.592 22.584C81.592 21.6773 81.7733 20.8827 82.136 20.2C82.5093 19.5067 83.0213 18.9733 83.672 18.6C84.3227 18.2267 85.0693 18.04 85.912 18.04C86.9787 18.04 87.8587 18.296 88.552 18.808C89.256 19.3093 89.7307 20.0293 89.976 20.968H88.008C87.848 20.5307 87.592 20.1893 87.24 19.944C86.888 19.6987 86.4453 19.576 85.912 19.576C85.1653 19.576 84.568 19.8427 84.12 20.376C83.6827 20.8987 83.464 21.6347 83.464 22.584C83.464 23.5333 83.6827 24.2747 84.12 24.808C84.568 25.3413 85.1653 25.608 85.912 25.608C86.968 25.608 87.6667 25.144 88.008 24.216H89.976C89.72 25.112 89.24 25.8267 88.536 26.36C87.832 26.8827 86.9573 27.144 85.912 27.144C85.0693 27.144 84.3227 26.9573 83.672 26.584C83.0213 26.2 82.5093 25.6667 82.136 24.984C81.7733 24.2907 81.592 23.4907 81.592 22.584ZM99.7298 18.184L94.3218 31.144H92.4338L94.2258 26.856L90.7538 18.184H92.7858L95.2658 24.904L97.8418 18.184H99.7298Z" fill="#3A643B"/>
</svg>
