<svg width="154" height="43" viewBox="0 0 154 43" fill="none" xmlns="http://www.w3.org/2000/svg">
<rect width="154" height="43" rx="19" fill="#F7F7FC"/>
<path d="M20.864 27.612C20.1173 27.612 19.4453 27.484 18.848 27.228C18.2507 26.9613 17.7813 26.588 17.44 26.108C17.0987 25.628 16.928 25.068 16.928 24.428H18.88C18.9227 24.908 19.1093 25.3027 19.44 25.612C19.7813 25.9213 20.256 26.076 20.864 26.076C21.4933 26.076 21.984 25.9267 22.336 25.628C22.688 25.3187 22.864 24.924 22.864 24.444C22.864 24.0707 22.752 23.7667 22.528 23.532C22.3147 23.2973 22.0427 23.116 21.712 22.988C21.392 22.86 20.944 22.7213 20.368 22.572C19.6427 22.38 19.0507 22.188 18.592 21.996C18.144 21.7933 17.76 21.484 17.44 21.068C17.12 20.652 16.96 20.0973 16.96 19.404C16.96 18.764 17.12 18.204 17.44 17.724C17.76 17.244 18.208 16.876 18.784 16.62C19.36 16.364 20.0267 16.236 20.784 16.236C21.8613 16.236 22.7413 16.508 23.424 17.052C24.1173 17.5853 24.5013 18.3213 24.576 19.26H22.56C22.528 18.8547 22.336 18.508 21.984 18.22C21.632 17.932 21.168 17.788 20.592 17.788C20.0693 17.788 19.6427 17.9213 19.312 18.188C18.9813 18.4547 18.816 18.8387 18.816 19.34C18.816 19.6813 18.9173 19.964 19.12 20.188C19.3333 20.4013 19.6 20.572 19.92 20.7C20.24 20.828 20.6773 20.9667 21.232 21.116C21.968 21.3187 22.5653 21.5213 23.024 21.724C23.4933 21.9267 23.888 22.2413 24.208 22.668C24.5387 23.084 24.704 23.644 24.704 24.348C24.704 24.9133 24.5493 25.4467 24.24 25.948C23.9413 26.4493 23.4987 26.8547 22.912 27.164C22.336 27.4627 21.6533 27.612 20.864 27.612ZM30.3443 23.1L34.4083 27.5H31.9443L28.6803 23.708V27.5H26.8563V15.66H28.6803V22.54L31.8803 18.684H34.4083L30.3443 23.1ZM36.6436 17.516C36.313 17.516 36.0356 17.404 35.8116 17.18C35.5876 16.956 35.4756 16.6787 35.4756 16.348C35.4756 16.0173 35.5876 15.74 35.8116 15.516C36.0356 15.292 36.313 15.18 36.6436 15.18C36.9636 15.18 37.2356 15.292 37.4596 15.516C37.6836 15.74 37.7956 16.0173 37.7956 16.348C37.7956 16.6787 37.6836 16.956 37.4596 17.18C37.2356 17.404 36.9636 17.516 36.6436 17.516ZM37.5396 18.684V27.5H35.7156V18.684H37.5396ZM44.3824 18.54C45.0757 18.54 45.6944 18.684 46.2384 18.972C46.793 19.26 47.225 19.6867 47.5344 20.252C47.8437 20.8173 47.9984 21.5 47.9984 22.3V27.5H46.1904V22.572C46.1904 21.7827 45.993 21.18 45.5984 20.764C45.2037 20.3373 44.665 20.124 43.9824 20.124C43.2997 20.124 42.7557 20.3373 42.3504 20.764C41.9557 21.18 41.7584 21.7827 41.7584 22.572V27.5H39.9344V18.684H41.7584V19.692C42.057 19.3293 42.4357 19.0467 42.8944 18.844C43.3637 18.6413 43.8597 18.54 44.3824 18.54ZM61.6653 16.38V17.868H58.7053V27.5H56.8813V17.868H53.9053V16.38H61.6653ZM65.3365 19.964C65.6032 19.516 65.9552 19.1693 66.3925 18.924C66.8405 18.668 67.3685 18.54 67.9765 18.54V20.428H67.5125C66.7978 20.428 66.2538 20.6093 65.8805 20.972C65.5178 21.3347 65.3365 21.964 65.3365 22.86V27.5H63.5125V18.684H65.3365V19.964ZM77.7331 22.876C77.7331 23.2067 77.7118 23.5053 77.6691 23.772H70.9331C70.9865 24.476 71.2478 25.0413 71.7171 25.468C72.1865 25.8947 72.7625 26.108 73.4451 26.108C74.4265 26.108 75.1198 25.6973 75.5251 24.876H77.4931C77.2265 25.6867 76.7411 26.3533 76.0371 26.876C75.3438 27.388 74.4798 27.644 73.4451 27.644C72.6025 27.644 71.8451 27.4573 71.1731 27.084C70.5118 26.7 69.9891 26.1667 69.6051 25.484C69.2318 24.7907 69.0451 23.9907 69.0451 23.084C69.0451 22.1773 69.2265 21.3827 69.5891 20.7C69.9625 20.0067 70.4798 19.4733 71.1411 19.1C71.8131 18.7267 72.5811 18.54 73.4451 18.54C74.2771 18.54 75.0185 18.7213 75.6691 19.084C76.3198 19.4467 76.8265 19.9587 77.1891 20.62C77.5518 21.2707 77.7331 22.0227 77.7331 22.876ZM75.8291 22.3C75.8185 21.628 75.5785 21.0893 75.1091 20.684C74.6398 20.2787 74.0585 20.076 73.3651 20.076C72.7358 20.076 72.1971 20.2787 71.7491 20.684C71.3011 21.0787 71.0345 21.6173 70.9491 22.3H75.8291ZM78.9201 23.052C78.9201 22.1667 79.1015 21.3827 79.4641 20.7C79.8375 20.0173 80.3388 19.4893 80.9681 19.116C81.6081 18.732 82.3121 18.54 83.0801 18.54C83.7735 18.54 84.3761 18.6787 84.8881 18.956C85.4108 19.2227 85.8268 19.5587 86.1361 19.964V18.684H87.9761V27.5H86.1361V26.188C85.8268 26.604 85.4055 26.9507 84.8721 27.228C84.3388 27.5053 83.7308 27.644 83.0481 27.644C82.2908 27.644 81.5975 27.452 80.9681 27.068C80.3388 26.6733 79.8375 26.1293 79.4641 25.436C79.1015 24.732 78.9201 23.9373 78.9201 23.052ZM86.1361 23.084C86.1361 22.476 86.0081 21.948 85.7521 21.5C85.5068 21.052 85.1815 20.7107 84.7761 20.476C84.3708 20.2413 83.9335 20.124 83.4641 20.124C82.9948 20.124 82.5575 20.2413 82.1521 20.476C81.7468 20.7 81.4161 21.036 81.1601 21.484C80.9148 21.9213 80.7921 22.444 80.7921 23.052C80.7921 23.66 80.9148 24.1933 81.1601 24.652C81.4161 25.1107 81.7468 25.4627 82.1521 25.708C82.5681 25.9427 83.0055 26.06 83.4641 26.06C83.9335 26.06 84.3708 25.9427 84.7761 25.708C85.1815 25.4733 85.5068 25.132 85.7521 24.684C86.0081 24.2253 86.1361 23.692 86.1361 23.084ZM92.4999 20.172V25.052C92.4999 25.3827 92.5745 25.6227 92.7239 25.772C92.8839 25.9107 93.1505 25.98 93.5239 25.98H94.6439V27.5H93.2039C92.3825 27.5 91.7532 27.308 91.3159 26.924C90.8785 26.54 90.6599 25.916 90.6599 25.052V20.172H89.6199V18.684H90.6599V16.492H92.4999V18.684H94.6439V20.172H92.4999ZM106.997 18.54C107.69 18.54 108.309 18.684 108.853 18.972C109.408 19.26 109.84 19.6867 110.149 20.252C110.469 20.8173 110.629 21.5 110.629 22.3V27.5H108.821V22.572C108.821 21.7827 108.624 21.18 108.229 20.764C107.834 20.3373 107.296 20.124 106.613 20.124C105.93 20.124 105.386 20.3373 104.981 20.764C104.586 21.18 104.389 21.7827 104.389 22.572V27.5H102.581V22.572C102.581 21.7827 102.384 21.18 101.989 20.764C101.594 20.3373 101.056 20.124 100.373 20.124C99.6903 20.124 99.1463 20.3373 98.741 20.764C98.3463 21.18 98.149 21.7827 98.149 22.572V27.5H96.325V18.684H98.149V19.692C98.4477 19.3293 98.8263 19.0467 99.285 18.844C99.7437 18.6413 100.234 18.54 100.757 18.54C101.461 18.54 102.09 18.6893 102.645 18.988C103.2 19.2867 103.626 19.7187 103.925 20.284C104.192 19.7507 104.608 19.3293 105.173 19.02C105.738 18.7 106.346 18.54 106.997 18.54ZM121.03 22.876C121.03 23.2067 121.009 23.5053 120.966 23.772H114.23C114.283 24.476 114.545 25.0413 115.014 25.468C115.483 25.8947 116.059 26.108 116.742 26.108C117.723 26.108 118.417 25.6973 118.822 24.876H120.79C120.523 25.6867 120.038 26.3533 119.334 26.876C118.641 27.388 117.777 27.644 116.742 27.644C115.899 27.644 115.142 27.4573 114.47 27.084C113.809 26.7 113.286 26.1667 112.902 25.484C112.529 24.7907 112.342 23.9907 112.342 23.084C112.342 22.1773 112.523 21.3827 112.886 20.7C113.259 20.0067 113.777 19.4733 114.438 19.1C115.11 18.7267 115.878 18.54 116.742 18.54C117.574 18.54 118.315 18.7213 118.966 19.084C119.617 19.4467 120.123 19.9587 120.486 20.62C120.849 21.2707 121.03 22.0227 121.03 22.876ZM119.126 22.3C119.115 21.628 118.875 21.0893 118.406 20.684C117.937 20.2787 117.355 20.076 116.662 20.076C116.033 20.076 115.494 20.2787 115.046 20.684C114.598 21.0787 114.331 21.6173 114.246 22.3H119.126ZM127.273 18.54C127.966 18.54 128.585 18.684 129.129 18.972C129.684 19.26 130.116 19.6867 130.425 20.252C130.734 20.8173 130.889 21.5 130.889 22.3V27.5H129.081V22.572C129.081 21.7827 128.884 21.18 128.489 20.764C128.094 20.3373 127.556 20.124 126.873 20.124C126.19 20.124 125.646 20.3373 125.241 20.764C124.846 21.18 124.649 21.7827 124.649 22.572V27.5H122.825V18.684H124.649V19.692C124.948 19.3293 125.326 19.0467 125.785 18.844C126.254 18.6413 126.75 18.54 127.273 18.54ZM135.344 20.172V25.052C135.344 25.3827 135.418 25.6227 135.568 25.772C135.728 25.9107 135.994 25.98 136.368 25.98H137.488V27.5H136.048C135.226 27.5 134.597 27.308 134.16 26.924C133.722 26.54 133.504 25.916 133.504 25.052V20.172H132.464V18.684H133.504V16.492H135.344V18.684H137.488V20.172H135.344Z" fill="#3A643B"/>
</svg>
