<svg width="21" height="22" viewBox="0 0 21 22" fill="none" xmlns="http://www.w3.org/2000/svg">
<path d="M9.74768 3.23357C10.0539 2.60547 10.9489 2.60547 11.2552 3.23357L12.8828 6.57212C13.004 6.82079 13.2401 6.99366 13.5137 7.03416L17.1719 7.57554C17.8561 7.6768 18.1304 8.51637 17.6379 9.00209L14.979 11.6242C14.7842 11.8163 14.6954 12.0915 14.7411 12.3613L15.3666 16.0539C15.4829 16.7403 14.7603 17.2613 14.1457 16.9341L10.8955 15.2035C10.6492 15.0723 10.3537 15.0723 10.1073 15.2035L6.85713 16.9341C6.24257 17.2613 5.51998 16.7403 5.63626 16.0539L6.26177 12.3613C6.30747 12.0915 6.21865 11.8163 6.0238 11.6242L3.36495 9.00209C2.87243 8.51637 3.1467 7.6768 3.83099 7.57554L7.48911 7.03416C7.76278 6.99366 7.99886 6.82079 8.12009 6.57212L9.74768 3.23357Z" fill="#F79624"/>
</svg>
